<?xml version="1.0" standalone="no"?>
<!DOCTYPE svg PUBLIC "-//W3C//DTD SVG 1.1//EN" "http://www.w3.org/Graphics/SVG/1.1/DTD/svg11.dtd" >
<svg>
<metadata>
Created by FontForge 20110222 at Thu Feb  4 04:29:48 2016
 By www-data
Copyright (c) 2007 by Prinya R. nont. All rights reserved.
</metadata>
<defs>
<font id="DBSathornX-Bold" horiz-adv-x="0" >
  <font-face 
    font-family="DB Sathorn X"
    font-weight="700"
    font-stretch="normal"
    units-per-em="1000"
    panose-1="2 0 5 6 6 0 0 2 0 4"
    ascent="800"
    descent="-200"
    x-height="415"
    cap-height="577"
    bbox="-485 -362 981 859"
    underline-thickness="35"
    underline-position="-96"
    unicode-range="U+0020-F882"
  />
<missing-glyph horiz-adv-x="414" 
d="M422 400v-14h6q7 0 7 9q0 1 -1.5 3t-5.5 2h-6zM425 385h-3v-14h-5v34h11q12 0 12 -10q0 -7 -3 -8.5t-7 -1.5l10 -14h-5zM428 366q13 0 17.5 7t4.5 13q0 24 -22 24q-23 0 -23 -24q0 -8 5.5 -14t17.5 -6zM428 413q13 0 19 -8t6 -19q0 -8 -6 -15.5t-19 -7.5q-12 0 -19 7.5
t-7 15.5q0 11 7 19t19 8zM201 316q16 -1 37.5 -4t43 -7t39.5 -9.5t27 -12.5q-20 40 -62 61.5t-86 21.5q-34 0 -65 -13t-51 -40q18 2 36 3t36 1h22.5t22.5 -1zM375 395v-142q-48 15 -109.5 25.5t-130.5 10.5q-48 0 -94 -6q6 22 19 42.5t33 36t46.5 24.5t58.5 9q31 0 56 -7
t43.5 -17t31.5 -22t19 -21q0 -1 0 6.5t-0.5 18.5t-0.5 23v19h28zM153 127q0 8 -5.5 12t-11.5 4q-7 0 -12 -4t-5 -12t5 -11.5t12 -3.5q6 0 11.5 3.5t5.5 11.5zM32 139q0 23 9 41t24 30t34 18t39 6t38.5 -5.5t33 -16.5t23 -28t8.5 -41v-116h106v202h28v-228h-189v26h29v119
q0 30 -22 45t-54 15q-30 0 -54 -16.5t-24 -46.5v-107l58 58q-5 2 -13 10t-8 23q0 18 11 28.5t29 10.5q17 0 27.5 -11.5t10.5 -27.5q0 -14 -5.5 -21.5t-9.5 -11.5q-2 -2 -17 -16.5t-33 -31.5q-11 -10 -22.5 -21t-24.5 -24h-32v138z" />
    <glyph glyph-name="ellipsis" unicode="&#x2e;&#x2e;&#x2e;" horiz-adv-x="529" 
d="M382 0v98h101v-98h-101zM214 0v98h101v-98h-101zM46 0v98h101v-98h-101z" />
    <glyph glyph-name="dochadaphinthuthai" unicode="&#xe0e;&#xe3a;" horiz-adv-x="445" 
d="M427 -42q0 -51 -31.5 -80.5t-100.5 -29.5h-89l-39 36l-39 -36h-114v80h98l55 48l51 -48h25q28 0 40.5 11.5t12.5 45.5v295q0 24 -13.5 41t-48.5 17q-32 0 -50 -17.5t-18 -41.5v-279h-152v73h21v141q0 30 8.5 51.5t22.5 35.5q-18 3 -32 2v54q18 10 38 22t45 22t56 16.5
t71 6.5q37 0 70.5 -7.5t58.5 -24t39.5 -44t14.5 -66.5v-324zM427 -258q0 -29 -18 -46t-47 -17q-26 0 -45.5 18.5t-19.5 44.5t19.5 44.5t45.5 18.5t45.5 -18.5t19.5 -44.5z" />
    <glyph glyph-name="topatakphintuthai" unicode="&#xe0f;&#xe3a;" horiz-adv-x="445" 
d="M427 -42q0 -51 -31.5 -80.5t-100.5 -29.5h-64l-39 36l-39 -36h-27l-39 36l-39 -36h-34v80h18l55 48l50 -48l55 48l51 -48q25 0 39 13t14 44v295q0 24 -13.5 41t-48.5 17q-32 0 -50 -17.5t-18 -41.5v-279h-152v73h21v141q0 30 8.5 51.5t22.5 35.5q-18 3 -32 2v54
q18 10 38 22t45 22t56 16.5t71 6.5q37 0 70.5 -7.5t58.5 -24t39.5 -44t14.5 -66.5v-324zM427 -258q0 -29 -18 -46t-47 -17q-26 0 -45.5 18.5t-19.5 44.5t19.5 44.5t45.5 18.5t45.5 -18.5t19.5 -44.5z" />
    <glyph glyph-name="dochadasarauthai" unicode="&#xe0e;&#xe38;" horiz-adv-x="445" 
d="M427 -42q0 -51 -31.5 -80.5t-100.5 -29.5h-89l-39 36l-39 -36h-114v80h98l55 48l51 -48h25q28 0 40.5 11.5t12.5 45.5v295q0 24 -13.5 41t-48.5 17q-32 0 -50 -17.5t-18 -41.5v-279h-152v73h21v141q0 30 8.5 51.5t22.5 35.5q-18 3 -32 2v54q18 10 38 22t45 22t56 16.5
t71 6.5q37 0 70.5 -7.5t58.5 -24t39.5 -44t14.5 -66.5v-324zM305 -362v67q0 9 -2.5 12.5t-12.5 3.5h-38l28 85h76q13 0 26 -2t23 -8t16 -17t6 -29v-112h-122z" />
    <glyph glyph-name="topataksarauthai" unicode="&#xe0f;&#xe38;" horiz-adv-x="445" 
d="M427 -42q0 -51 -31.5 -80.5t-100.5 -29.5h-64l-39 36l-39 -36h-27l-39 36l-39 -36h-34v80h18l55 48l50 -48l55 48l51 -48q25 0 39 13t14 44v295q0 24 -13.5 41t-48.5 17q-32 0 -50 -17.5t-18 -41.5v-279h-152v73h21v141q0 30 8.5 51.5t22.5 35.5q-18 3 -32 2v54
q18 10 38 22t45 22t56 16.5t71 6.5q37 0 70.5 -7.5t58.5 -24t39.5 -44t14.5 -66.5v-324zM305 -362v67q0 9 -2.5 12.5t-12.5 3.5h-38l28 85h76q13 0 26 -2t23 -8t16 -17t6 -29v-112h-122z" />
    <glyph glyph-name="fongmanfunnuthai" unicode="&#xe4f;&#x22;" horiz-adv-x="500" 
d="M337 451h-57l-10 194h81zM220 451h-57l-10 194h81zM464 208q0 -44 -17 -83t-46 -68t-68 -46t-83 -17t-83 17t-68 46t-46 68t-17 83q0 43 17 82t46 68t67.5 46t82.5 17q45 0 84 -17t68 -46t46 -68t17 -82zM402 208q0 31 -12 59t-33 48.5t-48.5 32.5t-58.5 12
q-32 0 -59.5 -12t-48 -32.5t-32.5 -48.5t-12 -59q0 -32 12 -59.5t32.5 -48t48 -32.5t58.5 -12t59 12t48.5 32.5t32.5 48t12 59.5h1zM368 208q0 -24 -9.5 -45.5t-25.5 -37.5t-37.5 -25.5t-45.5 -9.5q-25 0 -46.5 9.5t-37.5 25.5t-25.5 37.5t-9.5 45.5t9.5 45.5t25.5 37.5
t37.5 25.5t45.5 9.5q25 0 46.5 -9.5t37.5 -25.5t25 -37.5t9 -45.5h1zM329 208q0 33 -23.5 56t-55.5 23q-33 0 -56.5 -23t-23.5 -56t23.5 -56t55.5 -23q33 0 56 23t23 56h1z" />
    <glyph glyph-name="lessequal" unicode="&#x3c;&#x3d;" horiz-adv-x="538" 
d="M59 142v106l420 -155v-110zM59 302v96l420 159v-94l-274 -105l274 -105v-110z" />
    <glyph glyph-name="greaterequal" unicode="&#x3e;&#x3d;" horiz-adv-x="538" 
d="M59 -17v110l420 158v-109zM59 163v110l274 105l-274 105v94l420 -159v-96z" />
    <glyph glyph-name="plusminus" unicode="&#x2b;&#x2d;" horiz-adv-x="597" 
d="M357 359v-171h-117v171h-181v109h181v171h117v-171h181v-109h-181zM59 0v121h479v-120z" />
    <glyph glyph-name="dochadasarauuthai" unicode="&#xe0e;&#xe39;" horiz-adv-x="445" 
d="M427 -42q0 -51 -31.5 -80.5t-100.5 -29.5h-89l-39 36l-39 -36h-114v80h98l55 48l51 -48h25q28 0 40.5 11.5t12.5 45.5v295q0 24 -13.5 41t-48.5 17q-32 0 -50 -17.5t-18 -41.5v-279h-152v73h21v141q0 30 8.5 51.5t22.5 35.5q-18 3 -32 2v54q18 10 38 22t45 22t56 16.5
t71 6.5q37 0 70.5 -7.5t58.5 -24t39.5 -44t14.5 -66.5v-324zM426 -251q0 -29 -10 -48t-28 -30t-43.5 -15.5t-55.5 -4.5q-57 0 -87.5 21.5t-30.5 50.5q0 14 -2 22.5t-11 8.5h-24l24 55h42q33 0 50.5 -11t17.5 -43q0 -15 3 -19.5t13 -4.5q9 0 12 4.5t3 12.5v58h127v-57z" />
    <glyph glyph-name="topataksarauuthai" unicode="&#xe0f;&#xe39;" horiz-adv-x="445" 
d="M427 -42q0 -51 -31.5 -80.5t-100.5 -29.5h-64l-39 36l-39 -36h-27l-39 36l-39 -36h-34v80h18l55 48l50 -48l55 48l51 -48q25 0 39 13t14 44v295q0 24 -13.5 41t-48.5 17q-32 0 -50 -17.5t-18 -41.5v-279h-152v73h21v141q0 30 8.5 51.5t22.5 35.5q-18 3 -32 2v54
q18 10 38 22t45 22t56 16.5t71 6.5q37 0 70.5 -7.5t58.5 -24t39.5 -44t14.5 -66.5v-324zM426 -251q0 -29 -10 -48t-28 -30t-43.5 -15.5t-55.5 -4.5q-57 0 -87.5 21.5t-30.5 50.5q0 14 -2 22.5t-11 8.5h-24l24 55h42q33 0 50.5 -11t17.5 -43q0 -15 3 -19.5t13 -4.5
q9 0 12 4.5t3 12.5v58h127v-57z" />
    <glyph glyph-name=".notdef" horiz-adv-x="414" 
d="M422 400v-14h6q7 0 7 9q0 1 -1.5 3t-5.5 2h-6zM425 385h-3v-14h-5v34h11q12 0 12 -10q0 -7 -3 -8.5t-7 -1.5l10 -14h-5zM428 366q13 0 17.5 7t4.5 13q0 24 -22 24q-23 0 -23 -24q0 -8 5.5 -14t17.5 -6zM428 413q13 0 19 -8t6 -19q0 -8 -6 -15.5t-19 -7.5q-12 0 -19 7.5
t-7 15.5q0 11 7 19t19 8zM201 316q16 -1 37.5 -4t43 -7t39.5 -9.5t27 -12.5q-20 40 -62 61.5t-86 21.5q-34 0 -65 -13t-51 -40q18 2 36 3t36 1h22.5t22.5 -1zM375 395v-142q-48 15 -109.5 25.5t-130.5 10.5q-48 0 -94 -6q6 22 19 42.5t33 36t46.5 24.5t58.5 9q31 0 56 -7
t43.5 -17t31.5 -22t19 -21q0 -1 0 6.5t-0.5 18.5t-0.5 23v19h28zM153 127q0 8 -5.5 12t-11.5 4q-7 0 -12 -4t-5 -12t5 -11.5t12 -3.5q6 0 11.5 3.5t5.5 11.5zM32 139q0 23 9 41t24 30t34 18t39 6t38.5 -5.5t33 -16.5t23 -28t8.5 -41v-116h106v202h28v-228h-189v26h29v119
q0 30 -22 45t-54 15q-30 0 -54 -16.5t-24 -46.5v-107l58 58q-5 2 -13 10t-8 23q0 18 11 28.5t29 10.5q17 0 27.5 -11.5t10.5 -27.5q0 -14 -5.5 -21.5t-9.5 -11.5q-2 -2 -17 -16.5t-33 -31.5q-11 -10 -22.5 -21t-24.5 -24h-32v138z" />
    <glyph glyph-name=".null" 
 />
    <glyph glyph-name="nonmarkingreturn" horiz-adv-x="283" 
 />
    <glyph glyph-name="space" unicode=" " horiz-adv-x="250" 
 />
    <glyph glyph-name="exclam" unicode="!" horiz-adv-x="260" 
d="M176 172h-88l-42 385h168zM66 0v108h127v-108h-127z" />
    <glyph glyph-name="quotedbl" unicode="&#x22;" horiz-adv-x="346" 
d="M242 323h-73l52 254h102zM96 323h-73l52 254h101z" />
    <glyph glyph-name="numbersign" unicode="#" horiz-adv-x="560" 
d="M509 287h-84l-18 -76h97l-26 -98h-93l-25 -113h-99l26 113h-79l-26 -113h-97l26 113h-86l27 98h81l18 76h-92l27 98h88l32 144h99l-33 -144h77l34 144h97l-33 -144h88zM250 287l-18 -76h77l18 76h-77z" />
    <glyph glyph-name="dollar" unicode="$" horiz-adv-x="561" 
d="M525 166q0 -47 -17 -78.5t-44.5 -52t-62 -30.5t-68.5 -13v-59h-90v61q-85 5 -138 47t-69 127l122 25q10 -35 28.5 -61.5t56.5 -34.5v138q-36 7 -69.5 19t-59 32.5t-41 51.5t-15.5 77q0 40 15.5 70t41.5 50t59 31t69 13v53h90v-55q67 -4 113 -41t65 -106l-119 -22
q-7 25 -18 40t-41 23v-116q37 -6 71.5 -19.5t61.5 -36t43 -55.5t16 -78zM243 477q-21 -1 -33 -15.5t-13.5 -32t9.5 -33.5t37 -20v101zM333 97q30 6 44 23t14 36.5t-15 36.5t-43 23v-119z" />
    <glyph glyph-name="percent" unicode="%" horiz-adv-x="704" 
d="M534 -24q-50 0 -82.5 25.5t-48.5 64t-15.5 83.5t17 83.5t49 64t80.5 25.5q49 0 82 -25.5t49 -64t15.5 -83.5t-17 -83.5t-49 -64t-80.5 -25.5zM220 0h-105l369 581h105zM169 259q-50 0 -82 25.5t-48 64t-15 83.5t17 83.5t48.5 64t79.5 25.5q49 0 81.5 -25.5t49 -64
t16 -83.5t-17 -83.5t-49 -64t-80.5 -25.5zM575 146q1 17 -0.5 33t-6.5 28q-9 25 -34 25q-18 0 -26.5 -14t-12 -32.5t-3 -38.5t1.5 -32q2 -20 9 -35t31 -15q15 0 23.5 8.5t12 21.5t4.5 26.5t1 24.5zM211 429q0 17 -2 32.5t-7 27.5q-9 25 -33 25q-18 0 -26.5 -13.5t-12 -32.5
t-3 -38.5t1.5 -31.5q2 -19 9 -34.5t31 -15.5q16 0 24.5 8.5t12.5 21t4.5 26.5t0.5 25z" />
    <glyph glyph-name="ampersand" unicode="&#x26;" horiz-adv-x="694" 
d="M644 356q0 -26 -8 -59t-21 -66t-29.5 -62.5t-32.5 -47.5q17 -19 37.5 -24t38.5 -3l13 1v-108q-20 -7 -48.5 -7.5t-52.5 9.5q-17 7 -38.5 21t-35.5 30q-23 -17 -48 -27.5t-49.5 -16.5t-48.5 -8.5t-43 -2.5q-64 0 -111.5 20t-76 52t-38 72t1 80t43 76.5t86.5 61.5
q-36 43 -42 86.5t13 77.5t59.5 54.5t98.5 19.5q41 -1 72.5 -16t52 -38t28 -52.5t0.5 -59t-30 -57.5t-64 -48l105 -109q12 16 21.5 36.5t17 42.5t12.5 44t8 41zM349 436q7 20 -1 36.5t-37 18.5q-15 1 -24.5 -4t-14.5 -13t-6 -17t2 -16q6 -16 15.5 -27t18.5 -18
q12 7 27.5 16.5t19.5 23.5zM256 265q-21 -10 -36.5 -25t-23 -33t-7 -37t10.5 -35q14 -24 38 -34.5t52 -10.5t55 8t47 22z" />
    <glyph glyph-name="quotesingle" unicode="'" horiz-adv-x="219" 
d="M105 323h-72l52 254h101z" />
    <glyph glyph-name="parenleft" unicode="(" horiz-adv-x="320" 
d="M283 621q-69 -91 -97.5 -176t-28.5 -175q0 -93 23.5 -185t89.5 -185h-95q-72 78 -105 169.5t-33 200.5q0 108 36.5 193.5t111.5 157.5h98z" />
    <glyph glyph-name="parenright" unicode=")" horiz-adv-x="320" 
d="M283 270q0 -109 -33 -200.5t-105 -169.5h-95q66 93 89.5 185t23.5 185q0 90 -28.5 175t-97.5 176h98q75 -72 111.5 -157.5t36.5 -193.5z" />
    <glyph glyph-name="asterisk" unicode="*" horiz-adv-x="404" 
d="M258 401l93 -91l-85 -59l-65 110l-54 -112l-88 62l87 88l-128 25l35 95l113 -52l-20 123h106l-13 -122l110 50l37 -99z" />
    <glyph glyph-name="plus" unicode="+" horiz-adv-x="597" 
d="M357 179v-171h-117v171h-181v109h181v171h117v-171h181v-109h-181z" />
    <glyph glyph-name="comma" unicode="," horiz-adv-x="236" 
d="M121 -126h-74l58 126h-36v124h128v-110z" />
    <glyph glyph-name="hyphen" unicode="-" horiz-adv-x="426" 
d="M34 169v121h357v-120z" />
    <glyph glyph-name="period" unicode="." horiz-adv-x="246" 
d="M59 0v124h128v-124h-128z" />
    <glyph glyph-name="slash" unicode="/" horiz-adv-x="342" 
d="M151 -22h-101l140 599h102z" />
    <glyph glyph-name="zero" unicode="0" horiz-adv-x="490" 
d="M471 262q0 -59 -15 -108.5t-44 -85.5t-71 -56t-96 -20q-79 0 -129.5 40.5t-74.5 101.5t-22.5 132t27.5 132t76.5 101.5t122.5 40.5q63 0 106 -24t70 -63t38.5 -89t11.5 -102zM341 262q0 41 -4 75.5t-14.5 59t-29 38t-48.5 13.5q-28 0 -46 -16t-29 -42t-15.5 -59.5
t-4.5 -68.5q0 -34 4 -66t14.5 -57.5t29 -41t47.5 -15.5t47.5 15.5t29.5 41t15 57.5t4 66z" />
    <glyph glyph-name="one" unicode="1" horiz-adv-x="490" 
d="M98 0v93h103v279q-26 -11 -54.5 -18.5t-49.5 -7.5h-13v89q48 7 88.5 31t66.5 66q7 1 14 1t14 1q11 1 24 0.5t23 -1.5l11 -1v-439h95v-93h-322z" />
    <glyph glyph-name="two" unicode="2" horiz-adv-x="490" 
d="M459 360q1 -40 -14 -71t-39 -56.5t-54 -46t-58 -39.5q-20 -13 -42.5 -25t-43.5 -23h250v-99h-425v103q14 10 28.5 19t28.5 18q24 16 52 34t51 34q19 13 42 28.5t43 34t34 40.5t15 48q2 34 -21 56t-60 22q-19 0 -35.5 -7.5t-28.5 -21t-19 -31t-7 -37.5v-14l-125 28
q15 85 72.5 133.5t145.5 48.5q53 0 92 -14.5t65 -39t39 -56.5t14 -66z" />
    <glyph glyph-name="three" unicode="3" horiz-adv-x="490" 
d="M464 148q0 -44 -20 -73.5t-51 -47.5t-68 -26t-71 -9q-39 -1 -76.5 6t-68.5 25t-53 48t-30 74l117 30q3 -45 31.5 -69.5t73.5 -22.5q42 2 64.5 19.5t21.5 49.5q-1 30 -19.5 44.5t-44 19.5t-52.5 4t-44 -2v102q18 0 44 -0.5t49.5 4.5t40 18.5t16.5 42.5q0 27 -22.5 42
t-57.5 15q-37 0 -59.5 -21t-31.5 -55l-113 21q12 43 34 72t50.5 45.5t61 23.5t65.5 7q39 0 75 -10.5t63.5 -29.5t43.5 -46.5t15 -61.5q-1 -42 -21.5 -70t-56.5 -42q43 -11 68.5 -46.5t25.5 -80.5z" />
    <glyph glyph-name="four" unicode="4" horiz-adv-x="490" 
d="M388 103v-103h-123v103h-235v88l232 342h126v-323h72v-107h-72zM271 385l-113 -178h113v178z" />
    <glyph glyph-name="five" unicode="5" horiz-adv-x="490" 
d="M457 186q0 -47 -16 -83.5t-44 -61t-65.5 -37t-80.5 -12.5q-41 0 -79 10t-68 30t-49 49.5t-22 68.5l120 17q10 -41 38.5 -59t59 -15t54 26t23.5 64q0 33 -20 54.5t-47.5 27.5t-56 -6t-44.5 -46q-15 4 -28.5 7.5t-26.5 6.5q-11 2 -21 5t-18 5q-5 2 -9 3l-8 2l36 289h343
l-10 -92h-242l-9 -101q23 17 48 22.5t54 5.5q38 0 72.5 -13.5t60 -37.5t40.5 -57t15 -72z" />
    <glyph glyph-name="six" unicode="6" horiz-adv-x="490" 
d="M465 176q0 -46 -16.5 -80.5t-44.5 -57.5t-63.5 -34.5t-73.5 -11.5q-68 1 -114 22t-74.5 58t-41 88t-12.5 111q0 78 20 130.5t52.5 85t73.5 46.5t83 14q39 0 72 -7t58.5 -23.5t43.5 -44t27 -68.5l-119 -19q-7 42 -28.5 57t-48.5 15q-45 0 -76.5 -40.5t-30.5 -113.5
q23 27 55 40t67 13t69 -12t61 -35t44 -57t17 -76zM252 80q30 0 50 13t30.5 32.5t10.5 42t-10 42t-30 32.5t-51 13q-42 0 -65 -25.5t-23 -62.5q0 -42 26 -64.5t62 -22.5z" />
    <glyph glyph-name="seven" unicode="7" horiz-adv-x="490" 
d="M445 453q-42 -54 -72.5 -105.5t-49.5 -105.5t-28 -113t-9 -129h-135q0 61 14 122t38 118t55 107.5t65 91.5h-278l11 92h389v-78z" />
    <glyph glyph-name="eight" unicode="8" horiz-adv-x="490" 
d="M461 160q0 -42 -19 -73.5t-49.5 -52t-70 -30.5t-81.5 -10q-36 0 -74 8t-68.5 26t-50 46t-19.5 68q0 22 8 41t20.5 34t28.5 26.5t32 19.5q-32 20 -52 49.5t-19 71.5q1 39 18 68t45 47.5t63.5 28t73.5 9.5q35 0 69 -8t61 -25t44 -43.5t19 -62.5q2 -40 -18.5 -66.5
t-52.5 -46.5q38 -20 65 -51.5t27 -73.5zM273 326q33 14 46 34.5t8.5 39.5t-25.5 32.5t-55 13.5q-30 0 -49.5 -10.5t-26 -26t1 -32t31.5 -28.5q17 -8 34.5 -13t34.5 -10zM336 143q-4 30 -44 49q-18 8 -37.5 14t-38.5 12q-11 -5 -22.5 -11t-21.5 -14.5t-16 -18.5t-6 -23
q3 -61 91 -62q46 -1 71.5 13.5t23.5 40.5z" />
    <glyph glyph-name="nine" unicode="9" horiz-adv-x="490" 
d="M465 268q0 -78 -20 -130t-52.5 -83.5t-73.5 -45t-83 -13.5q-39 0 -71.5 5.5t-59 19.5t-45.5 38.5t-31 62.5l115 32q3 -21 12 -35t21 -22t26 -11.5t28 -3.5q45 0 76.5 40.5t30.5 113.5q-23 -27 -55 -40t-67 -13t-69 12t-61 35t-44 57t-17 76q0 45 16.5 79.5t44.5 58
t63.5 35t73.5 11.5q67 -1 113.5 -22t75 -58t41 -88t12.5 -111zM326 372q0 42 -26 64.5t-62 22.5q-30 0 -50 -13t-30.5 -32.5t-10.5 -42t10 -42t30 -32.5t51 -13q42 0 65 25.5t23 62.5z" />
    <glyph glyph-name="colon" unicode=":" horiz-adv-x="246" 
d="M59 292v123h128v-123h-128zM59 0v124h128v-124h-128z" />
    <glyph glyph-name="semicolon" unicode=";" horiz-adv-x="246" 
d="M70 292v123h128v-123h-128zM122 -126h-74l58 126h-36v124h128v-110z" />
    <glyph glyph-name="less" unicode="&#x3c;" horiz-adv-x="538" 
d="M59 202v96l420 159v-94l-274 -105l274 -105v-110z" />
    <glyph glyph-name="equal" unicode="=" horiz-adv-x="589" 
d="M81 261v100h427v-100h-427zM81 95v100h427v-100h-427z" />
    <glyph glyph-name="greater" unicode="&#x3e;" horiz-adv-x="538" 
d="M59 43v110l274 105l-274 105v94l420 -159v-96z" />
    <glyph glyph-name="question" unicode="?" horiz-adv-x="561" 
d="M473 387q0 -29 -9.5 -53t-25.5 -44.5t-36.5 -37.5t-42.5 -31q-12 -8 -17 -16t-7 -17t-2 -20t-1 -25h-99q-2 28 -3 48.5t3 38t16 33.5t36 34q26 19 41.5 36t15.5 46q0 31 -22 46.5t-48.5 12.5t-48.5 -25t-22 -65v-10l-113 13q3 52 21 88t45.5 59t62 33.5t69.5 10.5
q36 0 69.5 -9.5t59.5 -28.5t42 -48t16 -69zM226 0v109h120v-109h-120z" />
    <glyph glyph-name="at" unicode="@" horiz-adv-x="690" 
d="M653 259q-8 -39 -30.5 -73.5t-54.5 -58t-72.5 -32.5t-84.5 3q-14 4 -21.5 13t-11.5 20q-13 -11 -31 -18.5t-38.5 -10.5t-41.5 -1.5t-39 9.5q-38 16 -53.5 50t-12.5 74.5t22 82.5t49.5 74.5t70 50.5t84.5 10q17 -3 31 -10.5t23 -22.5l8 18h91l-89 -229q-9 -25 -5 -34.5
t11 -11.5q18 -3 40.5 8.5t42 34.5t33 56.5t13.5 74.5q0 43 -15.5 78.5t-44.5 60.5t-70 38t-92 10q-54 -3 -99.5 -24.5t-78.5 -57.5t-51.5 -83.5t-18.5 -102.5q0 -73 36.5 -120t91.5 -69.5t119.5 -21.5t120.5 24l36 -52q-38 -21 -81 -30.5t-97 -9.5q-63 0 -120.5 18
t-100.5 53t-68.5 86.5t-25.5 118.5q0 69 23.5 133t67 113.5t106.5 79t141 29.5q83 0 144.5 -24.5t98.5 -70t48.5 -110t-4.5 -143.5zM401 338q5 26 -1.5 39t-19.5 15.5t-29 -4.5t-31 -22q-30 -29 -48.5 -69.5t-24.5 -82.5q-3 -24 5 -37.5t21 -17.5t29 2.5t29 21.5
q11 13 22 33t21 42.5t17 43.5t10 36z" />
    <glyph glyph-name="A" unicode="A" horiz-adv-x="541" 
d="M397 0l-47 131h-185l-45 -131h-111l193 577h134l197 -577h-136zM258 420l-62 -189h123z" />
    <glyph glyph-name="B" unicode="B" horiz-adv-x="516" 
d="M501 149q-5 -46 -24.5 -75t-48 -45.5t-63.5 -22.5t-71 -6h-252v577h197q44 0 84.5 -3.5t72.5 -18t54 -43t30 -77.5q8 -48 -11.5 -81.5t-57.5 -54.5q43 -20 69.5 -59t20.5 -91zM346 411q-2 32 -24.5 42.5t-55.5 10.5h-94v-119h100q32 0 54 14.5t20 51.5zM364 176
q-3 32 -26.5 46.5t-57.5 14.5h-108v-126h106q38 0 63.5 15t22.5 50z" />
    <glyph glyph-name="C" unicode="C" horiz-adv-x="525" 
d="M510 209q-8 -49 -25.5 -88.5t-46 -67.5t-69 -44t-93.5 -17q-62 -2 -109 22t-78.5 65.5t-47.5 95.5t-16 113t15 113.5t45.5 96t77.5 66t112 24.5q55 0 95.5 -16.5t68.5 -46t45 -71t24 -90.5l-122 -14q-3 24 -10 47t-19.5 41.5t-32.5 29t-49 8.5q-32 -2 -52.5 -18t-33 -41
t-17.5 -57.5t-5 -66.5q0 -35 5.5 -68.5t19 -59.5t36 -42t57.5 -16q28 -1 46.5 9t30.5 26.5t18 37.5t9 43z" />
    <glyph glyph-name="D" unicode="D" horiz-adv-x="526" 
d="M483 157q-36 -84 -109.5 -120.5t-167.5 -36.5h-164v577h162q40 0 74.5 -4t64.5 -16t57.5 -33t53.5 -54q20 -27 34.5 -62.5t19.5 -76.5t-0.5 -85t-24.5 -89zM342 180q18 28 24.5 60.5t4.5 63t-11.5 57.5t-22.5 44q-18 23 -36 35.5t-38 18t-42.5 5.5t-49.5 -3v-347h35
q56 0 85.5 16t50.5 50z" />
    <glyph glyph-name="E" unicode="E" horiz-adv-x="438" 
d="M42 0v577h385v-109h-255v-125h205v-109h-205v-124h255v-110h-385z" />
    <glyph glyph-name="F" unicode="F" horiz-adv-x="438" 
d="M172 468v-125h205v-109h-205v-234h-130v577h385v-109h-255z" />
    <glyph glyph-name="G" unicode="G" horiz-adv-x="550" 
d="M446 0l-23 56q-8 -10 -20.5 -21.5t-30.5 -21t-41.5 -16t-53.5 -6.5q-83 -1 -138.5 41.5t-83.5 108t-28 142t27.5 143.5t82.5 112.5t138 49.5q53 2 93.5 -11.5t70 -40t50 -64.5t33.5 -85l-127 -18q-8 49 -35.5 79t-82.5 24q-31 -3 -51.5 -19t-33 -40.5t-18 -55.5t-5.5 -64
q0 -36 4 -69.5t16.5 -59.5t35.5 -42t62 -17q23 -1 41 6.5t31 20.5t21.5 30.5t12.5 36.5h-117v111h246v-310h-76z" />
    <glyph glyph-name="H" unicode="H" horiz-adv-x="516" 
d="M343 0v234h-171v-234h-130v577h130v-234h171v234h131v-577h-131z" />
    <glyph glyph-name="I" unicode="I" horiz-adv-x="214" 
d="M42 0v577h130v-577h-130z" />
    <glyph glyph-name="J" unicode="J" horiz-adv-x="350" 
d="M308 175q0 -36 -6.5 -67.5t-25.5 -56t-52 -40t-87 -19.5q-32 -3 -59 1.5t-57 14.5v105q23 -7 46.5 -9.5t48.5 -1.5q23 1 35.5 9t18.5 20.5t7 29.5t1 37v378h130v-401z" />
    <glyph glyph-name="K" unicode="K" horiz-adv-x="525" 
d="M376 0l-112 260l-92 -114v-146h-130v577h130v-266l207 266h140l-160 -205l162 -372h-145z" />
    <glyph glyph-name="L" unicode="L" horiz-adv-x="428" 
d="M41 0v577h130v-461h244v-116h-374z" />
    <glyph glyph-name="M" unicode="M" horiz-adv-x="668" 
d="M495 0v399l-133 -399h-77l-132 398v-398h-111v577h184l109 -328l109 328h182v-577h-131z" />
    <glyph glyph-name="N" unicode="N" horiz-adv-x="528" 
d="M379 0l-226 372v-372h-111v577h129l204 -344v344h111v-577h-107z" />
    <glyph glyph-name="O" unicode="O" horiz-adv-x="564" 
d="M283 -12q-66 0 -114.5 25.5t-80 67.5t-46.5 95.5t-14 109.5t18 109.5t49 95.5t79 67.5t109 25.5q64 0 111.5 -25.5t79.5 -67.5t47.5 -95.5t15.5 -109.5t-16 -109.5t-48 -95.5t-79.5 -67.5t-110.5 -25.5zM397 290q0 35 -5 68t-18 58t-35 40t-56 15q-32 0 -53.5 -15
t-35 -40t-19.5 -58t-6 -68q0 -36 4 -70t16 -60.5t34.5 -42.5t59.5 -16q35 0 57 16t35 42.5t17.5 60.5t4.5 70z" />
    <glyph glyph-name="P" unicode="P" horiz-adv-x="502" 
d="M487 379q-2 -46 -21 -78t-48 -52t-65 -29t-71 -9h-110v-211h-130v577h198q51 0 96.5 -10t79.5 -33t53.5 -61t17.5 -94zM351 392q0 35 -25 50t-60 15h-94v-131h100q35 0 57 15.5t22 50.5z" />
    <glyph glyph-name="Q" unicode="Q" horiz-adv-x="564" 
d="M508 -107q-31 -3 -65 -4t-63 7.5t-50 29.5t-25 62q-5 -1 -11 -1.5t-12 -0.5q-66 0 -114.5 25.5t-80 67.5t-46.5 95.5t-14 109.5t17.5 109.5t48.5 95.5t79.5 67.5t109.5 25.5q71 0 122.5 -33t83 -85t43 -115.5t1.5 -126t-41 -116t-84 -84.5v-14q0 -12 13 -17t30.5 -6
t34 0.5t23.5 3.5v-96zM397 288q0 35 -5 68t-18 58.5t-35.5 40.5t-56.5 15q-33 0 -55 -15t-35 -40.5t-18.5 -58.5t-5.5 -68q0 -36 4 -70t16 -60t34.5 -42t59.5 -16q36 0 58.5 16t35 42.5t17 60t4.5 69.5z" />
    <glyph glyph-name="R" unicode="R" horiz-adv-x="500" 
d="M354 0l-90 218h-92v-218h-130v577h197q51 0 97 -9.5t80.5 -33t54 -61.5t16.5 -95q-2 -48 -27 -82t-67 -53l101 -243h-140zM356 393q0 36 -24 50.5t-66 14.5h-94v-130h100q34 0 59 16t25 49z" />
    <glyph glyph-name="S" unicode="S" horiz-adv-x="509" 
d="M486 173q0 -45 -19 -79t-51.5 -56.5t-74.5 -34t-87 -11.5q-42 0 -80 9.5t-68 30t-51.5 51.5t-31.5 75l119 28q22 -82 111 -80q45 1 73 14.5t27 46.5q-1 24 -23.5 36t-56 20t-72.5 17t-72.5 27.5t-55.5 51.5t-22 90q0 41 17.5 73t46 54t65 33.5t74.5 11.5q76 1 131.5 -34
t79.5 -110l-116 -31q-14 32 -34.5 47.5t-57.5 17.5q-27 1 -46 -9.5t-26.5 -25.5t-1 -31.5t30.5 -27.5q17 -8 36.5 -12t38.5 -9q35 -8 70 -19.5t63.5 -31.5t46 -52t17.5 -80z" />
    <glyph glyph-name="T" unicode="T" horiz-adv-x="453" 
d="M292 462v-462h-131v462h-142v115h415v-115h-142z" />
    <glyph glyph-name="U" unicode="U" horiz-adv-x="518" 
d="M477 191q0 -41 -11.5 -77.5t-37.5 -63.5t-67.5 -43t-100.5 -16q-67 0 -109.5 18t-67 48t-33.5 69.5t-9 83.5v367h133v-367q0 -23 4 -42.5t15 -33.5t30 -22t48 -8q29 1 47.5 8t29 19t14 29t3.5 37v380h112v-386z" />
    <glyph glyph-name="V" unicode="V" horiz-adv-x="511" 
d="M316 0h-123l-181 577h136l117 -386l117 386h116z" />
    <glyph glyph-name="W" unicode="W" horiz-adv-x="758" 
d="M595 0h-121l-96 349l-86 -349h-119l-160 577h133l94 -358l88 358h115l97 -359l91 359h114z" />
    <glyph glyph-name="X" unicode="X" horiz-adv-x="554" 
d="M389 0l-119 196l-128 -196h-132l194 299l-169 278h155l100 -168l106 168h133l-173 -266l188 -311h-155z" />
    <glyph glyph-name="Y" unicode="Y" horiz-adv-x="535" 
d="M338 242v-242h-131v242l-196 335h150l124 -215l117 215h125z" />
    <glyph glyph-name="Z" unicode="Z" horiz-adv-x="507" 
d="M28 0v99l274 363h-254v115h426v-104l-269 -360h276v-113h-453z" />
    <glyph glyph-name="bracketleft" unicode="[" horiz-adv-x="236" 
d="M41 -59v695h154v-68h-47v-559h47v-68h-154z" />
    <glyph glyph-name="backslash" unicode="\" horiz-adv-x="342" 
d="M190 -20l-139 596h101l139 -596h-101z" />
    <glyph glyph-name="bracketright" unicode="]" horiz-adv-x="236" 
d="M41 -59v68h47v559h-47v68h154v-695h-154z" />
    <glyph glyph-name="asciicircum" unicode="^" horiz-adv-x="344" 
d="M236 354l-59 148l-69 -148h-84l111 232h86l99 -232h-84z" />
    <glyph glyph-name="underscore" unicode="_" horiz-adv-x="500" 
d="M0 -150v75h500v-75h-500z" />
    <glyph glyph-name="grave" unicode="`" horiz-adv-x="219" 
d="M116 315l-86 270h104l55 -270h-73z" />
    <glyph glyph-name="a" unicode="a" horiz-adv-x="437" 
d="M298 0q-11 14 -14 35q-26 -28 -58 -36.5t-70 -8.5q-35 0 -61.5 10t-45 28t-28 41.5t-9.5 50.5q0 47 28 76t69 44.5t87.5 20.5t82.5 4v23q0 13 -7 21.5t-17.5 13.5t-23 6.5t-22.5 1.5q-61 0 -73 -58l-109 15q9 40 27 67t44 43t58 22t70 5q91 -2 133.5 -36t42.5 -106v-127
q0 -10 -0.5 -30.5t0.5 -42t3 -40.5t7 -26l13 -17h-127zM279 195q-16 0 -39.5 -2.5t-45.5 -10.5t-37.5 -22.5t-15.5 -37.5q0 -21 21.5 -33t47.5 -8.5t47.5 25.5t21.5 69v20z" />
    <glyph glyph-name="b" unicode="b" horiz-adv-x="456" 
d="M439 207q0 -45 -13 -85t-36.5 -69.5t-57 -46t-75.5 -15.5q-13 0 -29 2.5t-33.5 8.5t-34.5 17t-31 28l-19 -48h-68v559h123v-170q22 21 47 31.5t50 10.5q49 0 83 -18.5t55 -49t30 -71t9 -84.5zM311 204q1 63 -13.5 93t-56.5 33q-13 1 -26.5 -4t-24.5 -16.5t-18 -30.5
t-7 -45v-65q0 -24 10.5 -42t26.5 -28t34.5 -10t35 11.5t27.5 37t12 66.5z" />
    <glyph glyph-name="c" unicode="c" horiz-adv-x="423" 
d="M301 249q-3 15 -6.5 29t-11 24.5t-19.5 17t-32 6.5t-34.5 -9.5t-23.5 -26t-13.5 -38t-4.5 -44.5q0 -46 18 -79t56 -33q35 0 51 23t21 53l112 -10q-10 -74 -57.5 -121t-125.5 -49q-69 -2 -114.5 29.5t-68 80.5t-22 106t23 106.5t67 82.5t109.5 33q84 0 129 -44t59 -122z
" />
    <glyph glyph-name="d" unicode="d" horiz-adv-x="466" 
d="M326 -1l1 48q-13 -19 -28 -30t-31 -17t-31 -7.5t-28 -1.5q-42 -1 -75.5 15.5t-57 46t-36.5 69.5t-13 85q0 44 9 84.5t30 71t54.5 49t83.5 18.5q12 0 26 -2.5t27.5 -7.5t25 -13t18.5 -19v170h123v-559h-98zM301 234q0 26 -7 45t-18 30.5t-24.5 16.5t-26.5 4
q-42 -3 -56.5 -33t-13.5 -93q1 -41 12 -66.5t27.5 -37t35 -11.5t34.5 10t26.5 28t10.5 42v65z" />
    <glyph glyph-name="e" unicode="e" horiz-adv-x="447" 
d="M427 142q-23 -72 -70.5 -111t-128.5 -39q-51 0 -89 17t-63.5 46t-38.5 69t-13 87q0 45 13.5 85t39.5 70t64.5 47t88.5 17q57 0 96 -20t61.5 -54t31 -78.5t5.5 -92.5h-277q2 -38 22 -66t64 -28q33 0 51.5 19.5t27.5 47.5zM301 273q-5 25 -25 45.5t-50 19.5
q-35 -1 -51.5 -19.5t-23.5 -45.5h150z" />
    <glyph glyph-name="f" unicode="f" horiz-adv-x="305" 
d="M241 473q-40 0 -40 -36v-21h83v-96h-83v-320h-123v320h-65v96h65q0 63 16 96.5t45 48.5t68.5 16t86.5 -1v-103h-53z" />
    <glyph glyph-name="g" unicode="g" horiz-adv-x="467" 
d="M455 9q1 -45 -21.5 -73.5t-57 -45t-76 -22.5t-77.5 -6q-29 0 -66 3.5t-70 15.5t-55 35.5t-20 64.5q2 33 17.5 52.5t32.5 30.5q-20 17 -27 36t-3 38.5t17 37t33 31.5l5 3q-21 17 -34.5 39t-13.5 54q0 38 17.5 63.5t44.5 41.5t60 22.5t64 6.5q24 0 37.5 -1.5t28.5 -6.5
q9 29 25 45t37 23.5t45 9t50 1.5v-102l-14 1q-14 2 -36 1t-32 -14q19 -14 32 -37t13 -54q0 -36 -17 -61.5t-44 -41.5t-60 -23.5t-65 -7.5q-20 0 -35.5 3t-33.5 5q-16 -12 -14.5 -19.5t12.5 -12t28.5 -6t34.5 -2t30 0t15 0.5q29 0 62.5 -3t62 -15.5t48 -38.5t20.5 -72z
M287 300q0 20 -15 35t-47 15q-31 0 -46 -15t-15 -35t13.5 -34.5t47.5 -14.5q33 0 47.5 14.5t14.5 34.5zM312 -40q15 5 21.5 12.5t5.5 15.5t-9 14.5t-23 9.5q-18 3 -41.5 3t-47.5 -0.5t-47 1t-39 7.5q-12 -21 -6 -34.5t22 -22t39.5 -12t47.5 -3.5t45 2.5t32 6.5z" />
    <glyph glyph-name="h" unicode="h" horiz-adv-x="449" 
d="M283 1v258q0 45 -18.5 59t-40.5 6t-40.5 -33t-18.5 -58v-232h-123v558h118v-192q31 36 73.5 49.5t81 4t65.5 -42.5t27 -90v-287h-124z" />
    <glyph glyph-name="i" unicode="i" horiz-adv-x="208" 
d="M42 459v97h122v-97h-122zM42 1v413h122v-413h-122z" />
    <glyph glyph-name="j" unicode="j" horiz-adv-x="230" 
d="M66 459v97h122v-97h-122zM188 -7q0 -47 -9.5 -76.5t-28 -46.5t-46 -23.5t-63.5 -6.5h-57v102h54q17 0 22.5 10.5t5.5 31.5v430h122v-421z" />
    <glyph glyph-name="k" unicode="k" horiz-adv-x="441" 
d="M312 279l119 -278h-131l-77 175l-58 -66v-109h-123v557h123v-295l135 151h135z" />
    <glyph glyph-name="l" unicode="l" horiz-adv-x="206" 
d="M42 1v557h122v-557h-122z" />
    <glyph glyph-name="m" unicode="m" horiz-adv-x="699" 
d="M534 0v253q0 38 -11.5 53t-36.5 15q-33 0 -55.5 -27.5t-22.5 -66.5v-227h-122v253q0 41 -9.5 54.5t-38.5 13.5q-15 0 -28 -7t-23.5 -20t-16.5 -30t-6 -37v-227h-122v415h118v-44q16 27 47.5 41t66 13t67 -17t50.5 -49q20 26 47.5 42t57 21t58.5 -1t52 -23.5t37 -46.5
t14 -70v-281h-123z" />
    <glyph glyph-name="n" unicode="n" horiz-adv-x="449" 
d="M283 0v259q0 45 -18.5 59t-40.5 6t-40.5 -33t-18.5 -57v-234h-123v415h118v-51q16 26 40.5 41t52 18.5t55 -3.5t49.5 -23.5t36 -43t14 -62.5v-291h-124z" />
    <glyph glyph-name="o" unicode="o" horiz-adv-x="444" 
d="M223 -8q-71 0 -117 32.5t-67.5 80.5t-20 105t24.5 105t67.5 80.5t107.5 32.5q70 0 116.5 -32.5t69 -80.5t22 -105t-23 -105t-68 -80.5t-111.5 -32.5zM294 211q0 23 -4 43.5t-12 35.5t-21.5 24t-31.5 9q-21 0 -35.5 -9.5t-23.5 -25t-13 -36.5t-4 -44q-1 -57 15.5 -84.5
t56.5 -27.5q15 0 28 5.5t23 19t16 35.5t6 55z" />
    <glyph glyph-name="p" unicode="p" horiz-adv-x="454" 
d="M435 212q0 -50 -9.5 -91t-30.5 -70.5t-55 -46t-82 -16.5q-24 0 -48.5 10t-45.5 30v-170h-122v557h118v-33q21 23 45.5 32t47.5 10q82 2 132 -54t50 -158zM305 216q-1 60 -22 84t-52 26q-24 0 -45.5 -21.5t-21.5 -56.5v-63q0 -26 7 -44t17.5 -29t24 -16t25.5 -4
q40 4 54 32.5t13 91.5z" />
    <glyph glyph-name="q" unicode="q" horiz-adv-x="465" 
d="M301 -143v170q-21 -20 -46 -30t-48 -10q-48 0 -82 16.5t-55.5 46.5t-31.5 71t-10 90q0 46 13.5 85.5t37.5 68t58 44t75 14.5q13 0 29 -2t32.5 -8t33 -16.5t30.5 -27.5l18 46h68v-558h-122zM301 247q0 23 -10 40.5t-25.5 27t-33.5 10t-34 -11t-26.5 -35.5t-11.5 -63
q-1 -63 13 -91.5t54 -32.5q12 -1 25.5 4t24 16t17.5 29t7 44v63z" />
    <glyph glyph-name="r" unicode="r" horiz-adv-x="302" 
d="M294 298q-61 8 -94.5 -23t-33.5 -95v-180h-124v415h117v-47q27 35 58.5 47t76.5 9v-126z" />
    <glyph glyph-name="s" unicode="s" horiz-adv-x="414" 
d="M392 134q0 -35 -13.5 -62t-37 -45.5t-56.5 -28t-72 -9.5q-61 0 -98 15t-57 34.5t-27.5 39t-8.5 28.5l108 18q9 -29 33 -40t53 -11q26 0 43.5 11.5t17.5 29.5q0 15 -14 23t-42 14q-32 6 -63.5 14.5t-57 23.5t-41.5 39.5t-16 62.5q0 27 10.5 51.5t31.5 43t53 29t75 10.5
q57 0 101 -25.5t62 -82.5q0 -1 -16 -3.5t-36 -5.5q-11 -2 -24 -4t-27 -4q-11 43 -61 43q-32 0 -46 -10.5t-14 -30.5q0 -14 15.5 -22.5t35.5 -14t39 -8t27 -3.5q55 -11 89 -40t34 -80z" />
    <glyph glyph-name="t" unicode="t" horiz-adv-x="295" 
d="M202 -5q-36 -1 -60.5 7t-39.5 24t-21 38t-6 48v221h-59v82h60l14 109h110v-109h75v-82h-75v-209q0 -21 9.5 -30t20.5 -10l59 -2v-85z" />
    <glyph glyph-name="u" unicode="u" horiz-adv-x="449" 
d="M289 0v51q-24 -39 -65.5 -52.5t-82 -3.5t-70 42.5t-29.5 86.5v291h124v-259q0 -45 18.5 -60t40.5 -8t40.5 32.5t18.5 60.5v234h123v-415h-118z" />
    <glyph glyph-name="v" unicode="v" horiz-adv-x="420" 
d="M265 1h-99l-155 414h128l78 -255l76 255h116z" />
    <glyph glyph-name="w" unicode="w" horiz-adv-x="599" 
d="M469 0h-105l-58 216l-65 -216h-103l-128 415h128l59 -222l62 222h100l59 -221l61 221h110z" />
    <glyph glyph-name="x" unicode="x" horiz-adv-x="432" 
d="M280 0l-73 115l-81 -115h-116l142 201l-136 214h144l67 -107l75 107h116l-136 -193l140 -222h-142z" />
    <glyph glyph-name="y" unicode="y" horiz-adv-x="430" 
d="M248 -64q-15 -43 -43 -60t-71 -17q-28 0 -49.5 2t-25.5 2h-14v86h14q7 0 21.5 -1t28.5 -1q16 0 25 5t14.5 14t9 20.5t7.5 23.5l-154 405h131l82 -240l86 240h109z" />
    <glyph glyph-name="z" unicode="z" horiz-adv-x="400" 
d="M19 0v84l186 230h-166v101h330v-92l-176 -224h188v-99h-362z" />
    <glyph glyph-name="braceleft" unicode="{" horiz-adv-x="259" 
d="M131 -62q-22 0 -38 14.5t-16 47.5v238q0 7 -5.5 17.5t-11.5 20t-11.5 16.5t-5.5 9t5.5 9t11.5 16.5t11.5 19t5.5 17.5v214q0 30 16 46t38 16h85v-41h-18q-18 0 -22.5 -7t-4.5 -20v-191q0 -13 -1 -23.5t-6 -18.5q-5 -7 -9.5 -13.5t-8.5 -11.5l-4 -6l-4 -6l4 -6t4 -5
q4 -5 8 -11t9 -11q8 -14 8 -38v-226q0 -11 5 -18t22 -7h18v-41h-85z" />
    <glyph glyph-name="bar" unicode="|" horiz-adv-x="195" 
d="M45 -119v814h105v-814h-105z" />
    <glyph glyph-name="braceright" unicode="}" horiz-adv-x="259" 
d="M219 301q0 -2 -6 -9t-13.5 -16.5t-13.5 -20t-6 -17.5v-238q0 -33 -16 -47.5t-38 -14.5h-86v41h18q17 0 22 7t5 18v226q0 24 8 38q4 5 10.5 11t12.5 11q4 2 7 5t7 6q-4 3 -7 6t-7 6q-11 10 -23 25q-5 8 -6 18.5t-1 23.5v191q0 13 -4.5 20t-22.5 7h-19v41h85q22 0 38 -16
t16 -46v-214q0 -8 6 -17.5t13.5 -19t14 -16.5t6.5 -9z" />
    <glyph glyph-name="asciitilde" unicode="~" horiz-adv-x="584" 
d="M364 159l-148 79l-152 -58v115l152 58l148 -79l156 58v-115z" />
    <glyph glyph-name="thothannobasethai" unicode="&#xf700;" horiz-adv-x="457" 
d="M441 463q2 -12 0 -26.5t-8 -28.5t-15.5 -26.5t-23.5 -20.5q26 -19 36.5 -61t10.5 -85q0 -40 -11 -78.5t-33 -69t-54 -49.5t-75 -19l-109 1l-52 131q-8 19 -21 24t-30 5l34 101q53 8 80 -12t41 -57l39 -98q9 0 19.5 6.5t19.5 19.5t15.5 33t6.5 48q1 40 -7 66.5t-21 41.5
t-30 21t-33 6q-25 0 -46 -9t-32 -37l-119 18q23 65 75.5 93t121.5 28q27 0 47.5 -3.5t37.5 -8.5q9 8 13.5 18t2.5 28h120z" />
    <glyph glyph-name="saraileftthai" unicode="&#xf701;" 
d="M-441 492l37 79h225v-79h-262z" />
    <glyph glyph-name="saraiileftthai" unicode="&#xf702;" 
d="M-441 492l37 79h133v43h92v-122h-262z" />
    <glyph glyph-name="saraueleftthai" unicode="&#xf703;" 
d="M-171 555q0 -29 -20 -46t-50 -17h-200l37 80h94q5 18 22.5 31t46.5 13q32 0 51 -16t19 -45zM-218 557q0 9 -6 15t-17 6q-9 0 -16 -5t-7 -16q0 -10 7 -15t16 -5t16 5t7 15z" />
    <glyph glyph-name="saraueeleftthai" unicode="&#xf704;" 
d="M-441 492l37 79h91v46h39q8 0 9 -4t1 -8q2 -7 2 -9v-9q2 -6 4 -12.5t11 -6.5q8 0 11 6t3 13q2 6 2 8.5t2 9.5q0 4 2 8t7 4h41v-125h-262z" />
    <glyph glyph-name="maieklowleftthai" unicode="&#xf705;" 
d="M-336 488v149h132v-149h-132z" />
    <glyph glyph-name="maitholowleftthai" unicode="&#xf706;" 
d="M-180 549q-60 -45 -122.5 -56.5t-131.5 -3.5v37q9 6 11 14t-1 14.5t-11 10.5t-20 2l28 80q23 5 47 4.5t42 -8.5t24.5 -28.5t0.5 -40.5q41 8 69.5 24.5t63.5 51.5v-101z" />
    <glyph glyph-name="maitrilowleftthai" unicode="&#xf707;" 
d="M-155 553q-17 -33 -39.5 -49.5t-45.5 -22.5t-43.5 -4t-33.5 7q3 3 9 11q3 5 6 11.5t3 14.5q0 7 -4.5 14.5t-15.5 8.5q-8 0 -13.5 -2.5t-9.5 -5.5q-2 -2 -4 -4.5t-4 -4.5q-2 3 -4 5.5t-4 4.5q-9 8 -22 7q-11 -2 -14.5 -8.5t-3.5 -14.5q0 -12 5 -22.5t12 -14.5h-82
q-5 8 -9 14.5t-7 14.5t-4.5 18.5t-1.5 26.5q0 32 21 54.5t56 22.5q15 0 30 -4.5t26 -14.5q11 10 26 14.5t30 4.5q35 0 57 -21t15 -56q9 10 14 27.5t10 29.5z" />
    <glyph glyph-name="maichattawalowleftthai" unicode="&#xf708;" 
d="M-243 518v-56h-127v56h-64v81h64v57h127v-57h65v-81h-65z" />
    <glyph glyph-name="thanthakhatlowleftthai" unicode="&#xf709;" 
d="M-190 552q-21 1 -31.5 -3t-14.5 -11.5t-4 -16.5v-17l1 -20h-129l-1 20q-2 44 10 69.5t35 37.5t57 14t77 0v-73z" />
    <glyph glyph-name="maieklowrightthai" unicode="&#xf70a;" 
d="M-154 485v149h131v-149h-131z" />
    <glyph glyph-name="maitholowrightthai" unicode="&#xf70b;" 
d="M14 540q-29 -20 -62.5 -32t-69 -17.5t-72 -5.5t-70.5 4v37q9 6 11.5 14t-0.5 14.5t-11 10.5t-20 2l28 80q23 5 47 4.5t41 -8.5q19 -8 25.5 -28.5t0.5 -40.5q42 9 79 24t73 52v-110z" />
    <glyph glyph-name="maitrilowrightthai" unicode="&#xf70c;" 
d="M45 559q-18 -35 -42 -53t-48.5 -24t-46.5 -4t-35 7l9 12q4 5 7 12.5t3 15.5t-5 15.5t-16 8.5q-16 0 -25 -9q-2 -2 -4 -4.5t-4 -4.5q-2 3 -4 5.5t-4 4.5q-9 9 -24 8q-11 -2 -15.5 -9t-4.5 -15q0 -14 5.5 -24.5t13.5 -15.5h-88q-10 16 -16.5 30.5t-6.5 48.5t22.5 58
t59.5 24q34 0 60 -21q22 21 59 21q13 0 27 -5.5t25 -15t18 -22.5t7 -29q9 11 14.5 24t10.5 26z" />
    <glyph glyph-name="maichattawalowrightthai" unicode="&#xf70d;" 
d="M-30 531v-46h-127v46h-54v82h54v46h127v-46h55v-82h-55z" />
    <glyph glyph-name="thanthakhatlowrightthai" unicode="&#xf70e;" 
d="M4 562q-21 2 -32 -1.5t-16 -12t-5 -20.5t1 -28l1 -15h-132l-1 15q-3 43 8 71t34.5 43.5t59 20.5t82.5 3v-76z" />
    <glyph glyph-name="yoyingnobasethai" unicode="&#xf70f;" horiz-adv-x="650" 
d="M628 140q0 -29 -8.5 -55.5t-29 -47.5t-55.5 -33.5t-87 -12.5q-53 0 -88 11.5t-55.5 32t-29 47.5t-8.5 58v148q0 23 -10.5 37.5t-42.5 14.5q-27 0 -39.5 -15t-12.5 -39v-213h47v-73h-178v214q0 30 9 52.5t23 34.5q-17 4 -33 3v56q34 23 81 43.5t104 20.5q39 0 72.5 -6
t58 -21t38.5 -41t14 -66v-159q0 -26 13.5 -40t36.5 -14q22 0 35 13.5t13 40.5v284h132v-275z" />
    <glyph glyph-name="quoteleft" unicode="&#x2018;" horiz-adv-x="242" 
d="M131 608h74l-58 -126h36v-124h-128v110z" />
    <glyph glyph-name="quoteright" unicode="&#x2019;" horiz-adv-x="242" 
d="M111 358h-74l58 126h-36v124h128v-110z" />
    <glyph glyph-name="quotedblleft" unicode="&#x201c;" horiz-adv-x="410" 
d="M131 608h74l-58 -126h36v-124h-128v110zM299 608h74l-58 -126h36v-124h-128v110z" />
    <glyph glyph-name="quotedblright.001" horiz-adv-x="349" 
d="M228 365h-45l56 120h-43v92h98v-88zM99 365h-44l56 120h-43v92h97v-88z" />
    <glyph glyph-name="bullet" unicode="&#x2022;" horiz-adv-x="418" 
d="M373 202q0 -34 -13.5 -63.5t-36 -51.5t-52 -35t-62.5 -13t-63 13t-52.5 35t-35.5 51.5t-13 63.5t13 63.5t35 51.5t51.5 35t63.5 13t64 -13t52.5 -35t35.5 -51.5t13 -63.5z" />
    <glyph glyph-name="endash" unicode="&#x2013;" horiz-adv-x="500" 
d="M18 162v86h464v-86h-464z" />
    <glyph glyph-name="emdash" unicode="&#x2014;" horiz-adv-x="1000" 
d="M19 162v86h962v-86h-962z" />
    <glyph glyph-name="maihanakatleftthai" unicode="&#xf710;" 
d="M-245 492q-17 0 -36 4.5t-36 13t-29 21t-14 29.5l85 58q10 -25 35 -35t47 -10h208v-81h-260z" />
    <glyph glyph-name="nikhahitleftthai" unicode="&#xf711;" 
d="M-184 556q0 -42 -29.5 -65.5t-69.5 -23.5q-42 0 -71.5 23.5t-29.5 65.5q0 21 9 37t23 27t32.5 17t36.5 6t36 -6t32 -17.5t22.5 -27.5t8.5 -36zM-258 556q0 8 -7 14.5t-18 6.5q-13 0 -19.5 -6.5t-6.5 -14.5q0 -9 7 -15.5t19 -6.5q11 0 18 6.5t7 15.5z" />
    <glyph glyph-name="maitaikhuleftthai" unicode="&#xf712;" 
d="M-337 605q-15 0 -27 -6.5t-12 -26.5q0 -8 4.5 -19.5t12.5 -11.5l43 27l44 -27q16 -8 26.5 0t12.5 28l52 -23q0 -23 -9.5 -38t-24.5 -22.5t-33 -6.5t-34 11q-5 2 -10 6t-10 7q-4 3 -12 7l-33 -21q-19 -12 -39 -9t-36 15t-26.5 31t-10.5 39q0 45 24 67t56 22h208v-49h-166z
" />
    <glyph glyph-name="maiekupperleftthai" unicode="&#xf713;" 
d="M-299 671v129h127v-129h-127z" />
    <glyph glyph-name="maithoupperleftthai" unicode="&#xf714;" 
d="M-47 720q-29 -20 -63 -32t-69.5 -17.5t-71.5 -5.5t-70 4v37q9 6 11 14t-1 14.5t-11 10.5t-20 2l28 80q23 5 47 4.5t42 -8.5t24.5 -28.5t0.5 -40.5q42 9 79.5 24t73.5 52v-110z" />
    <glyph glyph-name="maitriupperleftthai" unicode="&#xf715;" 
d="M-5 733q-17 -33 -39.5 -49.5t-45.5 -22.5t-43.5 -4t-33.5 7q3 3 9 11q3 5 6 11.5t3 14.5q0 7 -4.5 14.5t-15.5 8.5q-8 0 -13.5 -2.5t-9.5 -5.5q-2 -2 -4 -4.5t-4 -4.5q-2 3 -4 5.5t-4 4.5q-9 8 -22 7q-11 -2 -14.5 -8.5t-3.5 -14.5q0 -12 5 -22.5t12 -14.5h-82
q-5 8 -9 14.5t-7 14.5t-4.5 18.5t-1.5 26.5q0 32 21 54.5t56 22.5q15 0 30 -4.5t26 -14.5q11 10 26 14.5t30 4.5q35 0 57 -21t15 -56q9 10 14 27.5t10 29.5z" />
    <glyph glyph-name="maichattawaupperleftthai" unicode="&#xf716;" 
d="M-187 710v-56h-119v56h-64v77h64v57h119v-57h65v-77h-65z" />
    <glyph glyph-name="thanthakhatupperleftthai" unicode="&#xf717;" 
d="M-150 702q-21 1 -31.5 -3t-14.5 -11.5t-4 -16.5v-17l1 -20h-129l-1 20q-2 44 10 69.5t35 37.5t57 14t77 0v-73z" />
    <glyph glyph-name="uni00A0" unicode="&#xa0;" horiz-adv-x="250" 
 />
    <glyph glyph-name="kokaithai" unicode="&#xe01;" horiz-adv-x="444" 
d="M292 0v280q0 24 -13.5 41t-48.5 17q-33 0 -50.5 -17.5t-17.5 -41.5v-279h-132v214q0 30 9 51.5t23 35.5q-18 3 -33 2v54q18 10 38 22t45 22t56 16.5t71 6.5q38 0 71.5 -7.5t58.5 -24t39.5 -44t14.5 -66.5v-282h-131z" />
    <glyph glyph-name="khokhaithai" unicode="&#xe02;" horiz-adv-x="399" 
d="M377 149q0 -31 -9.5 -60t-31 -51t-55.5 -35.5t-83 -13.5q-78 0 -125.5 38t-47.5 111q0 31 11.5 55t27 42.5t31 32t23.5 24.5q8 10 8.5 17.5t-3 13t-10.5 8t-14 2.5q-15 0 -24.5 -6t-21.5 -17l-30 73q27 20 53.5 30.5t59.5 10.5q34 0 57.5 -14.5t35 -37t10.5 -50
t-15 -52.5q-10 -18 -22.5 -32.5t-23.5 -29t-18.5 -31t-7.5 -38.5q0 -34 15 -44t30 -10q18 0 33 10t15 42v278h132v-266z" />
    <glyph glyph-name="khokhuatthai" unicode="&#xe03;" horiz-adv-x="399" 
d="M380 149q0 -31 -9.5 -60t-31 -51t-55.5 -35.5t-83 -13.5q-78 0 -125.5 38t-47.5 111q0 29 9 50t23.5 38.5t32.5 33t36 32.5q13 12 18.5 21.5t-3.5 15.5q-8 5 -20 -2.5t-20 -22.5q-5 5 -10.5 9t-11.5 9q-11 7 -26.5 14t-35.5 9l17 76q18 0 38.5 -10t33.5 -22
q16 20 37 27.5t41.5 4t37 -17t23.5 -34.5v46h132v-266zM248 313q-4 -17 -20 -42q-11 -16 -23.5 -31t-23.5 -30.5t-18.5 -33t-7.5 -38.5q0 -17 4.5 -27.5t11 -16t14.5 -7.5t15 -2q18 0 33 10t15 42v176z" />
    <glyph glyph-name="khokhwaithai" unicode="&#xe04;" horiz-adv-x="437" 
d="M285 0v280q0 30 -15.5 45t-43.5 15q-64 0 -64 -60v-27q0 -6 -1 -11.5t-2 -10.5q-1 -2 -1 -5t-1 -5q3 5 9.5 9.5t9.5 6.5q19 10 37.5 12.5t40.5 0.5v-103q-38 8 -65 -8.5t-27 -61.5v-77h-132v265q0 36 10.5 65.5t34 51t61 33t92.5 11.5q54 0 90 -11.5t58 -33t31.5 -51
t9.5 -65.5v-265h-132z" />
    <glyph glyph-name="khokhonthai" unicode="&#xe05;" horiz-adv-x="437" 
d="M285 0v290q0 12 -3.5 24.5t-14.5 20.5l-42 -23l-42 25q-6 -4 -13.5 -14t-7.5 -33v-37q0 -6 -1 -11.5t-2 -10.5q-1 -2 -1 -5t-1 -5q3 5 9.5 9.5t9.5 6.5q19 10 37.5 12.5t40.5 0.5v-103q-38 8 -65 -8.5t-27 -61.5v-77h-132v275q0 37 12.5 64t32.5 45t45.5 27.5t51.5 11.5
l55 -30l54 29q27 -2 52 -12t43.5 -28t29.5 -44.5t11 -62.5v-275h-132z" />
    <glyph glyph-name="khorakhangthai" unicode="&#xe06;" horiz-adv-x="439" 
d="M419 142q0 -75 -39.5 -113t-114.5 -38q-31 0 -60 16t-49 49l2 -28v-28h-125v127q0 25 2.5 44.5t12 39.5t27 42.5t47.5 52.5q5 5 8 12.5t-5 11.5q-6 3 -11 0.5t-10 -7t-9 -10.5t-7 -10q-6 5 -12 9l-12 8q-11 6 -25 11t-29 5l18 86q17 -4 35 -11.5t30 -21.5q15 17 31 24.5
t31 7.5q32 0 56.5 -19.5t24.5 -54.5q0 -14 -5 -31t-16 -31q-20 -23 -35.5 -47t-15.5 -56q0 -16 5.5 -32t15 -29.5t23.5 -22.5t32 -10q25 -2 36 18t11 52v257h132v-273z" />
    <glyph glyph-name="ngonguthai" unicode="&#xe07;" horiz-adv-x="435" 
d="M421 205q0 -47 -12 -85t-33 -64.5t-50 -41t-63 -14.5h-145l-100 369h128l73 -275q22 0 35.5 10t20.5 25.5t9 34.5t2 37q-1 33 -6 60t-16.5 44.5t-30.5 23.5t-48 -3l-17 77q19 10 36.5 14t41.5 4q49 0 82.5 -18t54 -48t29.5 -69t9 -81z" />
    <glyph glyph-name="chochanthai" unicode="&#xe08;" horiz-adv-x="430" 
d="M358 0h-152l-39 128q-6 23 -17.5 31t-33.5 8l31 92q16 0 32 -2t29.5 -8t24 -16.5t15.5 -27.5l13 -46l9 -49v17v15t1 14q4 26 7.5 48.5t8.5 47.5q6 33 -14.5 58.5t-60.5 25.5q-11 0 -23.5 -1.5t-24 -6.5t-20.5 -14t-13 -24l-119 20q10 35 30.5 57.5t48 35.5t60.5 18t69 5
q61 0 101 -17.5t62 -46t27 -65t-4 -75.5z" />
    <glyph glyph-name="chochingthai" unicode="&#xe09;" horiz-adv-x="440" 
d="M293 0v27v12t1 10q1 2 1 4.5t1 4.5q-23 -39 -53.5 -53t-61.5 -14q-29 0 -55.5 10t-47.5 29.5t-33.5 48t-12.5 64.5v93h131v-78q0 -31 12 -50.5t38 -19.5q30 0 51.5 28t21.5 68v70q0 38 -14.5 60t-59.5 22q-31 0 -52 -11.5t-27 -34.5l-119 20q17 63 70 89.5t131 26.5
q45 0 82.5 -8.5t64 -28.5t41.5 -53.5t15 -84.5v-251h-125z" />
    <glyph glyph-name="chochangthai" unicode="&#xe0a;" horiz-adv-x="395" 
d="M389 437q0 -14 -3 -31t-9.5 -34t-17.5 -31t-27 -21q20 -8 26.5 -29.5t6.5 -40.5v-101q0 -31 -9.5 -60t-31 -51t-55.5 -35.5t-83 -13.5q-78 0 -125.5 38t-47.5 111q0 31 11.5 55t27 42.5t31 32t23.5 24.5q8 10 8.5 17.5t-3 13t-10.5 8t-14 2.5q-15 0 -24.5 -6t-21.5 -17
l-30 73q27 20 53.5 30.5t59.5 10.5q28 0 49 -10t34 -26.5t17.5 -38t0.5 -43.5q11 15 19 30t12.5 31.5t5.5 36t-2 44.5h129v-11zM233 247q0 6 -1.5 23t-8.5 26q-2 -6 -4.5 -12.5t-6.5 -13.5q-10 -18 -22.5 -32.5t-23.5 -29t-18.5 -31t-7.5 -38.5q0 -34 15 -44t30 -10
q18 0 33 10t15 42v110z" />
    <glyph glyph-name="sosothai" unicode="&#xe0b;" horiz-adv-x="395" 
d="M392 437q0 -14 -3 -31.5t-10 -34t-18 -30.5t-26 -21q20 -8 26.5 -30t6.5 -41v-100q0 -31 -9.5 -60t-31 -51t-55.5 -35.5t-83 -13.5q-78 0 -125.5 38t-47.5 111q0 29 9 50t23.5 38.5t32.5 33t36 32.5q13 12 18.5 21.5t-3.5 15.5q-8 5 -20 -2.5t-20 -22.5q-5 5 -10.5 9
t-11.5 9q-11 7 -26.5 14t-35.5 9l17 76q18 0 38.5 -10t33.5 -22q20 25 48 30t51 -5.5t36.5 -35.5t5.5 -59q17 27 23.5 56t1.5 73h129v-11zM236 246q0 6 -1.5 21t-6.5 25l-12 -21q-11 -16 -23.5 -31t-23.5 -30.5t-18.5 -33t-7.5 -38.5q0 -17 4.5 -27.5t11 -16t14.5 -7.5
t15 -2q18 0 33 10t15 42v109z" />
    <glyph glyph-name="chochoethai" unicode="&#xe0c;" horiz-adv-x="648" 
d="M628 143q0 -72 -34 -112t-91 -40q-31 0 -61.5 14t-53.5 53q0 -6 1 -9q1 -5 1.5 -10t0.5 -12v-27h-124v288q0 23 -10.5 37.5t-42.5 14.5q-27 0 -39.5 -15t-12.5 -39v-213h47v-73h-178v214q0 30 9 52.5t23 34.5q-17 4 -33 3v56q34 23 81 43.5t104 20.5q39 0 72.5 -6t58 -21
t38.5 -41t14 -66v-110q0 -18 5.5 -34t14 -28.5t19 -19.5t20.5 -7q25 0 32 12.5t7 29.5v282h132v-272z" />
    <glyph glyph-name="dochadathai" unicode="&#xe0e;" horiz-adv-x="445" 
d="M427 -42q0 -51 -31.5 -80.5t-100.5 -29.5h-89l-39 36l-39 -36h-114v80h98l55 48l51 -48h25q28 0 40.5 11.5t12.5 45.5v295q0 24 -13.5 41t-48.5 17q-32 0 -50 -17.5t-18 -41.5v-279h-152v73h21v141q0 30 8.5 51.5t22.5 35.5q-18 3 -32 2v54q18 10 38 22t45 22t56 16.5
t71 6.5q37 0 70.5 -7.5t58.5 -24t39.5 -44t14.5 -66.5v-324z" />
    <glyph glyph-name="topatakthai" unicode="&#xe0f;" horiz-adv-x="445" 
d="M427 -42q0 -51 -31.5 -80.5t-100.5 -29.5h-64l-39 36l-39 -36h-27l-39 36l-39 -36h-34v80h18l55 48l50 -48l55 48l51 -48q25 0 39 13t14 44v295q0 24 -13.5 41t-48.5 17q-32 0 -50 -17.5t-18 -41.5v-279h-152v73h21v141q0 30 8.5 51.5t22.5 35.5q-18 3 -32 2v54
q18 10 38 22t45 22t56 16.5t71 6.5q37 0 70.5 -7.5t58.5 -24t39.5 -44t14.5 -66.5v-324z" />
    <glyph glyph-name="thothanthai" unicode="&#xe10;" horiz-adv-x="457" 
d="M438 463q2 -12 0 -26.5t-8 -28.5t-15.5 -26.5t-23.5 -20.5q26 -19 36.5 -61t10.5 -85q0 -40 -11 -78.5t-33 -69t-54 -49.5t-75 -19l-109 1l-52 131q-8 19 -21 24t-30 5l34 101q53 8 80 -12t41 -57l39 -98q9 0 19.5 6.5t19.5 19.5t15.5 33t6.5 48q1 40 -7 66.5t-21 41.5
t-30 21t-33 6q-25 0 -46 -9t-32 -37l-119 18q23 65 75.5 93t121.5 28q27 0 47.5 -3.5t37.5 -8.5q9 8 13.5 18t2.5 28h120zM427 -56q0 -48 -27 -76.5t-93 -28.5h-60l-37 32l-37 -32h-100v95h84l53 48l55 -48h16q34 0 30 45h116v-35z" />
    <glyph glyph-name="thonangmonthothai" unicode="&#xe11;" horiz-adv-x="451" 
d="M306 0v258q0 32 -10 51t-36 19q-14 0 -28 -8t-24.5 -21.5t-17 -30.5t-6.5 -36v-232h-132v266q-8 32 -19.5 47.5t-37.5 21.5l32 81q22 -2 41 -15.5t29 -41.5l25 56h57v-57q20 27 51 46.5t71 19.5q28 0 53 -8.5t44 -26.5t29.5 -45t10.5 -63v-281h-132z" />
    <glyph glyph-name="thophuthaothai" unicode="&#xe12;" horiz-adv-x="684" 
d="M665 143q0 -72 -34.5 -112t-91.5 -40q-31 0 -61 14t-54 53q1 -2 1 -4.5t1 -4.5q1 -5 1.5 -10t0.5 -12v-27h-124v313l-37 -23q-8 20 -25 32.5t-37 5.5q-6 -2 -15 -8t-17 -18.5t-13.5 -33.5t-4.5 -54q2 -66 18.5 -95.5t50.5 -32.5q6 -1 15.5 0t16.5 4l17 -80
q-31 -19 -71 -19q-48 0 -82.5 18t-57.5 48t-34 69.5t-11 83.5q0 47 12.5 86t36 67.5t57.5 44t77 15.5q24 0 44.5 -10.5t31.5 -31.5l44 34h114v-235q0 -18 5.5 -34t14.5 -28.5t19.5 -19.5t19.5 -7q26 0 32.5 12.5t6.5 29.5v282h133v-272z" />
    <glyph glyph-name="nonenthai" unicode="&#xe13;" horiz-adv-x="648" 
d="M504 0v27v12t1 10q1 2 1 4.5t1 4.5q-23 -39 -53.5 -53t-61.5 -14q-57 0 -91 40t-34 112v145q0 23 -10.5 37.5t-42.5 14.5q-27 0 -39.5 -15t-12.5 -39v-213h47v-73h-178v214q0 30 9 52.5t23 34.5q-17 4 -33 3v56q34 23 81 43.5t104 20.5q39 0 72.5 -6t58 -21t38.5 -41
t14 -66v-157q0 -17 7.5 -29.5t32.5 -12.5q10 0 20.5 7t19 19.5t14 28.5t5.5 34v235h131v-415h-124z" />
    <glyph glyph-name="dodekthai" unicode="&#xe14;" horiz-adv-x="455" 
d="M305 0v250q0 38 -12.5 60t-50.5 24q-40 1 -63 -25t-23 -94q2 -66 19.5 -95.5t50.5 -32.5q6 -1 16 0t17 4l17 -80q-17 -10 -34 -14t-38 -4q-48 0 -82.5 17.5t-57 47.5t-33.5 69.5t-11 83.5q0 100 57 157.5t165 57.5q39 0 74 -10.5t62 -32t43 -53t16 -73.5v-257h-132z" />
    <glyph glyph-name="totaothai" unicode="&#xe15;" horiz-adv-x="456" 
d="M305 0v318l-37 -26q-14 22 -26 25t-26 3q-12 0 -23 -8t-19 -22.5t-13 -33.5t-5 -41q2 -66 19.5 -95.5t50.5 -32.5q6 -1 16 0t17 4l17 -80q-17 -10 -34 -14t-38 -4q-48 0 -82.5 17.5t-57 47.5t-33.5 69.5t-11 83.5q0 48 12 87t35.5 67t57 43.5t76.5 15.5q27 0 46.5 -12
t31.5 -28l43 31h115v-415h-132z" />
    <glyph glyph-name="thothungthai" unicode="&#xe16;" horiz-adv-x="444" 
d="M292 0v280q0 24 -13.5 41t-48.5 17q-33 0 -51 -17.5t-18 -41.5v-206h48v-73h-179v214q0 30 9 51.5t23 35.5q-18 3 -33 2v54q18 10 38 22t45 22t56 16.5t71 6.5q38 0 71.5 -7.5t58.5 -24t39.5 -44t14.5 -66.5v-282h-131z" />
    <glyph glyph-name="thothahanthai" unicode="&#xe17;" horiz-adv-x="437" 
d="M285 0v258q0 32 -10 51t-36 19q-14 0 -28 -8t-24.5 -21.5t-17 -30.5t-6.5 -36v-232h-133v415h126v-57q20 27 51.5 46.5t71.5 19.5q28 0 53.5 -8.5t44 -26.5t29.5 -45t11 -63v-281h-132z" />
    <glyph glyph-name="thothongthai" unicode="&#xe18;" horiz-adv-x="423" 
d="M407 121q0 -28 -10 -52t-33 -41t-59.5 -27t-90.5 -10q-52 0 -87.5 13t-57 32.5t-31 43.5t-9.5 47v63h126v-53q0 -26 18.5 -38t43.5 -12q28 0 44.5 10.5t16.5 27.5t-12.5 26.5t-30.5 17.5l-141 66q-35 17 -50.5 43t-15.5 54q0 42 32 64.5t81 22.5q57 0 123 -2t123 -2
l-19 -91h-38.5t-37.5 1q-32 1 -66 1.5t-57 0.5q-10 0 -10 -8q1 -5 2.5 -6t5.5 -3q17 -8 42.5 -19t50.5 -22q14 -6 29.5 -12t31.5 -13q37 -16 61.5 -44t24.5 -79z" />
    <glyph glyph-name="nonuthai" unicode="&#xe19;" horiz-adv-x="437" 
d="M291 0v57q-20 -27 -51.5 -46.5t-71.5 -19.5q-29 0 -53.5 8.5t-43.5 26.5t-29.5 45t-10.5 63v281h131v-258q0 -32 10.5 -51t36.5 -19q14 0 28 8t24.5 21.5t17 30.5t6.5 36v232h132v-415h-126z" />
    <glyph glyph-name="bobaimaithai" unicode="&#xe1a;" horiz-adv-x="437" 
d="M417 168q0 -36 -9.5 -68.5t-31.5 -56.5t-58.5 -38t-90.5 -14q-58 0 -96 14t-60.5 38t-31.5 56.5t-9 68.5v247h131v-273q0 -28 17 -42t45 -14q61 0 61 56v273h133v-247z" />
    <glyph glyph-name="poplathai" unicode="&#xe1b;" horiz-adv-x="445" 
d="M424 166q0 -36 -10 -68.5t-32.5 -56.5t-59.5 -38t-91 -14q-57 0 -95.5 14t-62 38t-33 56.5t-9.5 68.5v249h131v-275q0 -56 66 -56q29 0 46.5 14.5t17.5 41.5v450h132v-424z" />
    <glyph glyph-name="phophungthai" unicode="&#xe1c;" horiz-adv-x="504" 
d="M484 141q0 -34 -4.5 -62t-18 -48t-38.5 -31t-66 -11q-12 0 -26 4t-27.5 11t-24.5 17t-17 21q-15 -26 -41.5 -39.5t-49.5 -13.5q-45 0 -73.5 17.5t-44.5 47.5t-21.5 69t-5.5 82q0 42 6.5 81t23.5 69t46 48t73 18q28 0 45 -5.5t38 -22.5l-12 -67q-8 2 -11 3q-9 4 -13 4
q-29 6 -43 -7t-20 -34.5t-6 -46.5v-44q0 -36 0.5 -60t5.5 -39q3 -11 10.5 -16t15.5 -5t14 5t6 16v177h107v-176q0 -12 6 -18t13.5 -6t14 6t6.5 17v313h132v-274z" />
    <glyph glyph-name="fofathai" unicode="&#xe1d;" horiz-adv-x="504" 
d="M484 141q0 -34 -4.5 -62t-18 -48t-38.5 -31t-66 -11q-12 0 -26 4t-27.5 11t-24.5 17t-17 21q-15 -26 -41.5 -39.5t-49.5 -13.5q-45 0 -73.5 17.5t-44.5 47.5t-21.5 69t-5.5 82q0 42 6.5 81t23.5 69t46 48t73 18q28 0 45 -5.5t38 -22.5l-12 -67q-8 2 -11 3q-9 4 -13 4
q-29 6 -43 -7t-20 -34.5t-6 -46.5v-44q0 -36 0.5 -60t5.5 -39q3 -11 10.5 -16t15.5 -5t14 5t6 16v177h107v-176q0 -12 6 -18t13.5 -6t14 6t6.5 17v488h132v-449z" />
    <glyph glyph-name="phophanthai" unicode="&#xe1e;" horiz-adv-x="510" 
d="M490 131q0 -72 -32 -107t-89 -35q-35 0 -62.5 15t-44.5 38q-12 -23 -41 -38t-61 -15q-57 0 -93.5 36.5t-36.5 105.5v284h131v-312q0 -9 6.5 -15t15.5 -6t14.5 6t5.5 15v312h112v-312q0 -9 6.5 -15t15.5 -6t14.5 6t5.5 15v312h133v-284z" />
    <glyph glyph-name="fofanthai" unicode="&#xe1f;" horiz-adv-x="510" 
d="M490 131q0 -72 -32 -107t-89 -35q-35 0 -62.5 15t-44.5 38q-12 -23 -41 -38t-61 -15q-57 0 -93.5 36.5t-36.5 105.5v284h131v-312q0 -9 6.5 -15t15.5 -6t14.5 6t5.5 15v312h112v-312q0 -9 6.5 -15t15.5 -6t14.5 6t5.5 15v486h133v-458z" />
    <glyph glyph-name="phosamphaothai" unicode="&#xe20;" horiz-adv-x="445" 
d="M296 0v280q0 24 -13.5 41t-48.5 17q-32 0 -50 -17.5t-18 -41.5v-279h-152v73h21v141q0 30 8.5 51.5t22.5 35.5q-18 3 -32 2v54q18 10 38 22t45 22t56 16.5t71 6.5q37 0 70.5 -7.5t58.5 -24t39.5 -44t14.5 -66.5v-282h-131z" />
    <glyph glyph-name="momathai" unicode="&#xe21;" horiz-adv-x="438" 
d="M417 134q0 -36 -10.5 -63t-29.5 -45t-44 -26.5t-53 -8.5q-40 0 -71.5 19.5t-51.5 46.5v-57h-127v415h132v-232q0 -19 6.5 -36t17.5 -30.5t24.5 -21.5t27.5 -8q23 0 35 15.5t12 37.5v275h132v-281z" />
    <glyph glyph-name="yoyakthai" unicode="&#xe22;" horiz-adv-x="437" 
d="M416 134q0 -69 -44.5 -107t-143.5 -38q-45 0 -82.5 7.5t-65.5 24t-43.5 41t-15.5 59.5q0 32 13 57t39 38q-56 30 -56 90q0 23 7 43.5t22 36.5t37.5 26t54.5 11q18 0 31.5 -1t26.5 -3.5t26 -7.5t28 -13l-24 -78q-23 10 -38 12t-24.5 -2t-13.5 -11.5t-4 -15.5q0 -14 8 -23
t20 -14t25.5 -7t24.5 -2h8v-66h-7q-27 0 -46 -13.5t-19 -45.5q0 -18 14.5 -37t50.5 -19q18 0 29.5 6t18.5 15.5t9.5 20.5t2.5 22v275h131v-281z" />
    <glyph glyph-name="roruathai" unicode="&#xe23;" horiz-adv-x="430" 
d="M420 127q0 -39 -14.5 -65.5t-40.5 -43t-61.5 -23.5t-76.5 -7q-42 0 -76.5 5t-61 19t-44 39t-25.5 64l125 19q2 -18 10 -30t19.5 -19t25.5 -10t27 -3q9 0 19.5 2t19.5 6.5t14.5 11.5t5.5 16t-3 16t-14.5 13.5t-34 12.5t-60.5 13q-24 4 -49 13.5t-45.5 25t-33.5 38.5
t-13 53q0 66 51.5 99t141.5 33q78 0 123 -26t58 -89l-122 -21q-2 24 -17 38t-46 15q-38 1 -50.5 -12t-12.5 -26q0 -10 6.5 -16.5t21.5 -12t39 -10.5t60 -12q25 -5 49 -14t43 -24t30.5 -36.5t11.5 -51.5z" />
    <glyph glyph-name="ruthai" unicode="&#xe24;" horiz-adv-x="444" 
d="M292 -150v430q0 24 -13.5 41t-48.5 17q-33 0 -51 -17.5t-18 -41.5v-206h48v-73h-179v214q0 30 9 51.5t23 35.5q-18 3 -33 2v54q18 10 38 22t45 22t56 16.5t71 6.5q38 0 71.5 -7.5t58.5 -24t39.5 -44t14.5 -66.5v-432h-131z" />
    <glyph glyph-name="lolingthai" unicode="&#xe25;" horiz-adv-x="445" 
d="M296 0v198q-22 0 -46.5 -3t-44.5 -10.5t-33.5 -20t-13.5 -31.5q0 -18 8.5 -28.5t21 -15t27.5 -3.5t27 7l16 -77q-16 -14 -41.5 -20.5t-58.5 -6.5q-66 0 -102.5 37t-36.5 94q0 47 27 76.5t68.5 46t90 22t91.5 4.5v23q0 14 -7 24t-17.5 16.5t-23 9.5t-22.5 3
q-29 0 -52.5 -14.5t-28.5 -39.5l-120 18q6 33 27 55.5t49 36t60 19.5t61 6q41 0 78.5 -6t66 -21.5t45 -42.5t16.5 -69v-287h-132z" />
    <glyph glyph-name="luthai" unicode="&#xe26;" horiz-adv-x="445" 
d="M296 -150v430q0 24 -13.5 41t-48.5 17q-32 0 -50 -17.5t-18 -41.5v-279h-152v73h21v141q0 30 8.5 51.5t22.5 35.5q-18 3 -32 2v54q18 10 38 22t45 22t56 16.5t71 6.5q37 0 70.5 -7.5t58.5 -24t39.5 -44t14.5 -66.5v-432h-131z" />
    <glyph glyph-name="wowaenthai" unicode="&#xe27;" horiz-adv-x="460" 
d="M448 200q-2 -48 -16.5 -87.5t-42 -68t-68 -43.5t-94.5 -14q-87 1 -137.5 40t-63.5 112l125 16q2 -14 7 -28t13.5 -25t20.5 -18.5t28 -8.5q30 -1 47.5 10.5t27.5 31t13 44t3 49.5q0 24 -4.5 45.5t-14.5 38.5t-27 27t-42 10q-35 0 -53.5 -21t-25.5 -50l-124 9q8 43 29 72.5
t49.5 48t63 27t69.5 8.5q42 0 81.5 -13t70.5 -40t49 -69.5t16 -102.5z" />
    <glyph glyph-name="sosalathai" unicode="&#xe28;" horiz-adv-x="437" 
d="M445 364q-21 5 -34 3t-21 -5q14 -13 20 -40.5t6 -56.5v-265h-132v280q0 60 -59 60q-64 0 -64 -60v-27q0 -6 -0.5 -11.5t-1.5 -10.5q-1 -2 -1 -5t-1 -5q3 5 9 9.5t10 6.5q18 10 36.5 12.5t40.5 0.5v-103q-38 8 -65 -8.5t-27 -61.5v-77h-131v265q0 36 10.5 65.5t34 51
t61 33t92.5 11.5q45 0 83 -11q23 25 57 36.5t67 8.5z" />
    <glyph glyph-name="sorusithai" unicode="&#xe29;" horiz-adv-x="437" 
d="M416 182v-16q0 -36 -9.5 -68.5t-31.5 -56.5t-58.5 -38t-90.5 -14q-58 0 -96 14t-60.5 38t-31.5 56.5t-9 68.5v249h131v-275q0 -56 62 -56q29 0 45.5 14.5t16.5 41.5v38q-18 -4 -36.5 0t-33 12.5t-24.5 18t-12 16.5l54 79q15 -34 51 -38v149h132v-149l31 1v-84z" />
    <glyph glyph-name="sosuathai" unicode="&#xe2a;" horiz-adv-x="445" 
d="M465 364q-24 6 -36.5 3t-20.5 -7q6 -6 12.5 -28t6.5 -45v-287h-132v198q-22 0 -46.5 -3t-44.5 -10.5t-33.5 -20t-13.5 -31.5q0 -18 8.5 -28.5t21 -15t27.5 -3.5t27 7l16 -77q-16 -14 -41.5 -20.5t-58.5 -6.5q-66 0 -102.5 37t-36.5 94q0 47 27 76.5t68.5 46t90 22
t91.5 4.5v23q0 14 -7 24t-17.5 16.5t-23 9.5t-22.5 3q-29 0 -52.5 -14.5t-28.5 -39.5l-120 18q6 33 27 55.5t49 36t60 19.5t61 6q27 0 45 -2t30 -4t19.5 -4.5t12.5 -3.5q23 27 58 39.5t69 8.5z" />
    <glyph glyph-name="hohipthai" unicode="&#xe2b;" horiz-adv-x="437" 
d="M427 414q0 -9 -4 -23t-12.5 -28.5t-21 -27.5t-29.5 -21q30 -15 43 -47t13 -65v-202h-132v175q0 48 -19 62t-42.5 4t-42.5 -37.5t-19 -63.5v-140h-131v415h131v-114q21 15 43 24.5t40.5 21t32 27t17.5 41.5h133v-1z" />
    <glyph glyph-name="lochulathai" unicode="&#xe2c;" horiz-adv-x="510" 
d="M490 131q0 -72 -32 -107t-89 -35q-35 0 -62.5 15t-44.5 38q-12 -23 -41 -38t-61 -15q-57 0 -93.5 36.5t-36.5 105.5v284h131v-312q0 -9 6.5 -15t15.5 -6t14.5 6t5.5 15v206h112v-206q0 -9 6.5 -15t15.5 -6t15 6t6 15v203q0 24 -11 32t-28 9v40q14 2 26 12.5t12 32.5v33
h132v-37q0 -23 -9.5 -38.5t-23.5 -20.5q16 -5 25 -20.5t9 -32.5v-185z" />
    <glyph glyph-name="oangthai" unicode="&#xe2d;" horiz-adv-x="460" 
d="M448 206q0 -48 -14 -88t-41 -69.5t-67.5 -45.5t-94.5 -16q-58 0 -99 19.5t-66.5 53t-35.5 77.5t-6 94h206v-81h-79q4 -35 27.5 -56t54.5 -19q42 2 62 30.5t20 91.5q0 66 -21 100t-70 34q-35 0 -54.5 -19t-29.5 -48l-118 14q17 75 69.5 110.5t137.5 35.5
q108 0 163.5 -59.5t55.5 -158.5z" />
    <glyph glyph-name="honokhukthai" unicode="&#xe2e;" horiz-adv-x="460" 
d="M460 364q-20 5 -36.5 2.5t-24.5 -10.5q48 -56 48 -150q0 -48 -14 -88t-41 -69.5t-67.5 -45.5t-94.5 -16q-58 0 -99 19.5t-66.5 53t-35.5 77.5t-6 94h206v-81h-78q4 -35 27 -56t54 -19q42 2 62 30.5t20 91.5q0 66 -21 100t-70 34q-34 0 -54 -19t-29 -48l-118 14
q34 146 206 146q52 0 93 -15q23 29 59.5 41.5t69.5 9.5z" />
    <glyph glyph-name="paiyannoithai" unicode="&#xe2f;" horiz-adv-x="435" 
d="M287 0v195q-44 -25 -95 -25q-58 0 -95.5 19t-56.5 47t-19.5 61t16.5 61t50.5 47t83.5 19q32 0 52.5 -6.5t42.5 -21.5l-29 -79q-26 11 -45 9t-30 -10.5t-14 -22t3.5 -25t23 -18.5t43.5 -4q30 4 49.5 18t19.5 33v118h132v-415h-132z" />
    <glyph glyph-name="saraathai" unicode="&#xe30;" horiz-adv-x="239" 
d="M148 256q-20 0 -41.5 5t-39.5 15t-31.5 25.5t-17.5 35.5l96 67q0 -11 7 -20.5t17.5 -17t22.5 -12t21 -4.5h44v-94h-78zM148 30q-20 0 -41.5 5t-39.5 15t-31.5 25.5t-17.5 35.5l96 67q0 -11 7 -20.5t17.5 -17t22.5 -12t21 -4.5h44v-94h-78z" />
    <glyph glyph-name="maihanakatthai" unicode="&#xe31;" 
d="M-166 485q-17 0 -38.5 4.5t-40.5 14t-33 24t-17 35.5l92 66q20 -50 77 -50h167v-94h-207z" />
    <glyph glyph-name="saraaathai" unicode="&#xe32;" horiz-adv-x="295" 
d="M145 0v302q0 20 -12.5 27.5t-30.5 7.5q-11 0 -29 -8.5t-27 -16.5l-34 63q26 20 61.5 35.5t83.5 15.5q36 0 59.5 -10t37 -26t18.5 -34.5t5 -34.5v-321h-132z" />
    <glyph glyph-name="saraamthai" unicode="&#xe33;" horiz-adv-x="295" 
d="M26 562q0 -43 -32 -64t-74 -21q-43 0 -75 21.5t-32 63.5q0 22 9.5 37.5t24.5 25.5t34 15t39 5q19 0 38 -5t34 -15t24.5 -25.5t9.5 -37.5zM145 0v302q0 20 -12.5 27.5t-30.5 7.5q-11 0 -29 -8.5t-27 -16.5l-34 63q26 20 61.5 35.5t83.5 15.5q36 0 59.5 -10t37 -26
t18.5 -34.5t5 -34.5v-321h-132zM-46 562q0 11 -10 20t-24 9t-24.5 -9t-10.5 -20q0 -12 10.5 -21t24.5 -9t24 9t10 21z" />
    <glyph glyph-name="saraithai" unicode="&#xe34;" 
d="M-441 485l43 93h352v-93h-395z" />
    <glyph glyph-name="saraiithai" unicode="&#xe35;" 
d="M-419 485l43 93h225v62h131v-155h-399z" />
    <glyph glyph-name="sarauethai" unicode="&#xe36;" 
d="M-18 564q0 -37 -25.5 -58t-64.5 -21h-313l43 93h178q4 26 28.5 45t63.5 19q42 0 66 -21t24 -57zM-80 564q0 9 -7 15.5t-21 6.5q-15 0 -22.5 -6.5t-7.5 -15.5q0 -22 30 -22q28 0 28 22z" />
    <glyph glyph-name="saraueethai" unicode="&#xe37;" 
d="M-421 485l43 93h189v62h54q9 0 10.5 -4t1.5 -8q1 -7 2 -20.5t2 -20.5q1 -6 3.5 -11.5t11.5 -5.5q8 0 10.5 5t3.5 12q1 6 2.5 20t2.5 21q1 5 2.5 8.5t9.5 3.5h52v-155h-400z" />
    <glyph glyph-name="sarauthai" unicode="&#xe38;" 
d="M-145 -199v67q0 9 -2.5 12.5t-12.5 3.5h-37l27 85h78q14 0 26.5 -1.5t22 -7t15 -16.5t5.5 -29v-114h-122z" />
    <glyph glyph-name="sarauuthai" unicode="&#xe39;" 
d="M-23 -103q0 -29 -10 -48t-28 -30t-43.5 -15.5t-55.5 -4.5q-57 0 -87.5 21.5t-30.5 50.5q0 14 -2 22.5t-11 8.5h-24l24 55h42q33 0 50.5 -11t17.5 -43q0 -15 3 -19.5t13 -4.5q9 0 12 4.5t3 12.5v58h127v-57z" />
    <glyph glyph-name="phinthuthai" unicode="&#xe3a;" 
d="M-24 -101q0 -26 -19.5 -44.5t-45.5 -18.5t-45.5 18.5t-19.5 44.5t19.5 44.5t45.5 18.5t45.5 -18.5t19.5 -44.5z" />
    <glyph glyph-name="PUCR2005" unicode="&#xe3e;" 
 />
    <glyph glyph-name="bahtthai" unicode="&#xe3f;" horiz-adv-x="551" 
d="M522 141q-5 -48 -25.5 -76.5t-51 -42.5t-67.5 -18t-74 -4h-15v-71h-88v71h-163v577h163v52h88v-53q103 0 157 -40.5t54 -109.5q0 -54 -22.5 -84t-65.5 -43q22 -3 43 -17.5t37 -36.5t24.5 -49t5.5 -55zM371 405q0 38 -24 53t-66 15v-140q42 0 66 16.5t24 55.5zM209 473
h-53v-140h53v140zM390 174q0 22 -9 37t-24 24t-34.5 12t-41.5 2v-147q45 -2 77 14t32 58zM209 249h-53v-147h53v147z" />
    <glyph glyph-name="saraethai" unicode="&#xe40;" horiz-adv-x="182" 
d="M30 0v415h132v-415h-132z" />
    <glyph glyph-name="saraaethai" unicode="&#xe41;" horiz-adv-x="350" 
d="M203 0v415h130v-415h-130zM28 0v415h128v-415h-128z" />
    <glyph glyph-name="saraothai" unicode="&#xe42;" horiz-adv-x="182" 
d="M179 512q-24 0 -29.5 -5t-2.5 -14.5t10 -24t7 -33.5v-435h-131v435q0 13 -2 20.5t-5 13.5t-7 12t-8 17q-16 40 15 66t101 26h105l19 -78h-72z" />
    <glyph glyph-name="saraaimaimuanthai" unicode="&#xe43;" horiz-adv-x="182" 
d="M176 481q-3 -9 -5.5 -16t-4.5 -14t-3 -15t-1 -19v-417h-131v438q0 18 5 26t10 22q2 7 0 10.5t-5 5.5q-5 3 -10.5 4t-9.5 1q-20 0 -28 -6t-23 -17l-46 48q31 31 62.5 46.5t78.5 15.5q30 0 54.5 -7.5t40.5 -21.5t21 -35t-5 -49z" />
    <glyph glyph-name="saraaimaimalaithai" unicode="&#xe44;" horiz-adv-x="182" 
d="M184 498q-5 -11 -9 -17t-7 -12t-4.5 -13.5t-1.5 -20.5v-435h-131v435q0 11 1 18t3 12t4.5 10t5.5 13q5 14 -0.5 19t-28.5 5h-75l21 78h116q64 0 92.5 -26.5t13.5 -65.5z" />
    <glyph glyph-name="lakkhangyaothai" unicode="&#xe45;" horiz-adv-x="295" 
d="M145 -150v452q0 20 -12.5 27.5t-30.5 7.5q-11 0 -29 -8.5t-27 -16.5l-34 63q26 20 61.5 35.5t83.5 15.5q36 0 59.5 -10t37 -26t18.5 -34.5t5 -34.5v-471h-132z" />
    <glyph glyph-name="maiyamokthai" unicode="&#xe46;" horiz-adv-x="484" 
d="M304 -130v410q0 12 -3.5 23.5t-13.5 18.5l-46 -34l-45 35q-17 -4 -18.5 -15.5t6.5 -21.5l-92 -62q-27 34 -32 69.5t9.5 64t45.5 46.5t76 18l53 -37l55 37q135 0 135 -147v-405h-130z" />
    <glyph glyph-name="maitaikhuthai" unicode="&#xe47;" 
d="M-39 557q0 -26 -11 -44t-28.5 -26t-38 -7t-38.5 12q-5 3 -11 6.5t-12 7.5q-4 2 -7 4.5t-7 4.5l-38 -24q-22 -14 -45 -11t-41.5 17.5t-30.5 37.5t-12 49q0 52 28 81.5t64 29.5h228v-59h-180q-17 0 -30.5 -10.5t-13.5 -33.5q0 -5 1.5 -12t4 -13.5t6 -11t7.5 -4.5l50 30
l50 -31q19 -9 31.5 0.5t14.5 32.5z" />
    <glyph glyph-name="maiekthai" unicode="&#xe48;" 
d="M-150 700v139h128v-139h-128z" />
    <glyph glyph-name="maithothai" unicode="&#xe49;" 
d="M46 733q-58 -40 -125 -49t-136 -1v34q7 2 10 9t2 14.5t-6 13t-14 4.5l-13 -1l29 80q19 4 44 4.5t42 -7.5q18 -8 26 -27.5t5 -37.5q42 8 73.5 27t62.5 48v-111z" />
    <glyph glyph-name="maitrithai" unicode="&#xe4a;" 
d="M54 759q-17 -33 -39.5 -49.5t-45.5 -22.5t-43.5 -4t-33.5 7q3 3 9 11q3 5 6 11.5t3 14.5q0 7 -4.5 14.5t-14.5 8.5q-8 0 -14 -2.5t-10 -5.5q-3 -3 -7 -9q-2 3 -4 5.5t-4 4.5q-10 8 -22 7q-11 -2 -15 -8.5t-4 -14.5q0 -12 5 -22.5t12 -14.5h-82q-5 8 -9 14.5t-7 14.5
t-4.5 18.5t-1.5 26.5q0 32 21 54.5t56 22.5q15 0 30 -4.5t26 -14.5q11 10 26 14.5t30 4.5q35 0 57 -21t16 -56q8 10 13 27.5t10 29.5z" />
    <glyph glyph-name="maichattawathai" unicode="&#xe4b;" 
d="M-28 725v-56h-119v56h-64v77h64v57h119v-57h65v-77h-65z" />
    <glyph glyph-name="thanthakhatthai" unicode="&#xe4c;" 
d="M13 703q-21 1 -31.5 -3t-14.5 -11.5t-4 -16.5v-17l1 -20h-129l-1 20q-2 44 10 69.5t35 37.5t57 14t77 0v-73z" />
    <glyph glyph-name="nikhahitthai" unicode="&#xe4d;" 
d="M18 562q0 -43 -32 -64t-74 -21q-43 0 -75 21.5t-32 63.5q0 22 9.5 37.5t24.5 25.5t34 15t39 5q19 0 38 -5t34 -15t24.5 -25.5t9.5 -37.5zM-54 562q0 11 -10 20t-24 9t-24.5 -9t-10.5 -20q0 -12 10.5 -21t24.5 -9t24 9t10 21z" />
    <glyph glyph-name="yamakkanthai" unicode="&#xe4e;" 
d="M12 639q-33 0 -42.5 -16t-9.5 -59q-35 0 -49 -15.5t-14 -54.5h-81q0 62 23 93.5t53 43.5q4 15 12 30.5t22 28.5t35 21.5t51 8.5v-81z" />
    <glyph glyph-name="fongmanthai" unicode="&#xe4f;" horiz-adv-x="500" 
d="M458 208q0 -43 -16.5 -81t-44.5 -66t-66 -44.5t-81 -16.5t-80.5 16.5t-66 44.5t-45 66t-16.5 81t16.5 80.5t44.5 65.5t65.5 44.5t80.5 16.5t81 -16.5t66.5 -44.5t45 -65.5t16.5 -80.5zM406 208q0 32 -12.5 60.5t-33.5 49.5t-49.5 33.5t-60.5 12.5t-60.5 -12.5
t-49.5 -33.5t-33.5 -49.5t-12.5 -60.5t12 -60.5t33 -49.5t49.5 -33.5t60.5 -12.5t60.5 12.5t49.5 33.5t33.5 49.5t12.5 60.5h1zM364 208q0 -24 -9 -44.5t-24.5 -36t-36 -24.5t-44.5 -9t-44.5 9t-36.5 24.5t-25 36t-9 44.5t9 44.5t24.5 36t36 24.5t44.5 9t44.5 -9t36 -24.5
t24.5 -36t9 -44.5h1zM333 208q0 35 -24 59t-59 24t-59.5 -24t-24.5 -59t24 -59t59 -24t59 24t24 59h1z" />
    <glyph glyph-name="zerothai" unicode="&#xe50;" horiz-adv-x="600" 
d="M552 204q0 -51 -19 -91t-53.5 -67.5t-82 -42t-104.5 -14.5q-52 0 -96.5 15t-77.5 43t-51.5 68.5t-18.5 91.5t18.5 91t51.5 68.5t79.5 43.5t103.5 15q51 0 96.5 -14.5t79.5 -43t54 -69.5t20 -94zM424 203q0 60 -33.5 92t-90.5 32q-63 0 -92.5 -34.5t-29.5 -85.5
q0 -27 9 -49t25 -37t37.5 -23.5t46.5 -8.5q57 0 92.5 30t35.5 84z" />
    <glyph glyph-name="onethai" unicode="&#xe51;" horiz-adv-x="600" 
d="M554 198q0 -53 -25 -91.5t-66.5 -64.5t-93.5 -38.5t-106 -13t-105 10.5t-90 34l31 82q49 -27 105.5 -34.5t105 3t80.5 39t32 73.5q0 58 -33.5 92.5t-99.5 34.5q-55 0 -86 -16.5t-31 -52.5q0 -20 13 -30.5t28 -10.5q22 -1 31.5 12.5t2.5 30.5h91q13 -30 6.5 -56.5
t-26.5 -46t-52 -30.5t-69 -11q-25 0 -52 8.5t-49.5 26t-37 44.5t-14.5 65t20 69t54 52.5t78.5 33t93.5 11.5q128 0 196 -59t68 -167z" />
    <glyph glyph-name="twothai" unicode="&#xe52;" horiz-adv-x="603" 
d="M583 208q0 -64 -15 -104.5t-40 -64t-58 -32t-68 -8.5h-170q-100 0 -146.5 61t-44.5 170q0 10 1 31.5t-0.5 44t-7.5 40.5t-19 22l-16 5l46 128q45 -16 68.5 -44.5t33.5 -64t10.5 -75.5t-0.5 -78q-2 -75 19.5 -114.5t59.5 -39.5h164q33 0 48.5 30.5t15.5 87.5q0 4 -0.5 23
t-2.5 39.5t-7.5 37t-14.5 16.5q-16 0 -20 -22.5t-4 -53.5h-88q0 31 -3.5 53.5t-18.5 22.5q-11 0 -18 -19t-7 -39q0 -10 1.5 -23.5t4.5 -26t8.5 -21t13.5 -8.5q10 0 15.5 7.5t5.5 14.5l53 -37q-5 -35 -26.5 -52.5t-53.5 -17.5q-29 0 -52.5 13t-40 36t-25 53t-8.5 65
q0 31 7.5 60t21.5 51t34.5 35.5t47.5 13.5t49.5 -15t36.5 -59q6 22 16.5 36.5t23.5 22.5t27 11.5t27 3.5q54 0 85 -51t31 -165z" />
    <glyph glyph-name="threethai" unicode="&#xe53;" horiz-adv-x="600" 
d="M547 211q0 -81 -29.5 -137.5t-81.5 -87.5l-84 50q2 2 2.5 4.5t4.5 4.5q37 26 52 63.5t15 99.5q0 38 -3.5 61t-10 35t-14.5 16t-17 4q-10 0 -17 -13t-11.5 -30.5t-7.5 -34t-4 -22.5h-91q0 8 -1.5 25t-6 33.5t-12.5 29t-21 12.5q-3 0 -9 -3.5t-11 -14.5t-9 -31t-4 -53
q0 -9 1.5 -31t6.5 -45t14.5 -40.5t24.5 -17.5q12 0 16.5 11.5t9.5 18.5l62 -56q-9 -32 -33 -51.5t-64 -19.5q-34 0 -63.5 17t-51 48t-34 72.5t-12.5 91.5q0 54 12.5 93t33 63.5t47 36t55.5 11.5q31 0 56.5 -18t39.5 -47q13 30 39 47.5t57 17.5q25 0 52.5 -8.5t50 -31.5
t37 -65t14.5 -108z" />
    <glyph glyph-name="fourthai" unicode="&#xe54;" horiz-adv-x="590" 
d="M569 413q-16 -34 -46.5 -52t-66.5 -26.5t-74.5 -9.5t-69.5 -1q-66 0 -98.5 -28.5t-32.5 -89.5q0 -48 23 -78t62 -38q-20 16 -28.5 37t-8.5 41q0 27 10.5 49t27.5 37t38.5 23t42.5 8q38 0 61 -15.5t39 -52.5l-62 -57q-1 4 -5 9q-5 13 -11 17t-14 4q-3 0 -8 -4.5t-5 -19.5
q0 -21 23 -41.5t71 -22.5q32 -1 47 1.5t22 -1.5l23 -102q-5 -2 -7 -1.5t-7 0.5q-54 1 -85.5 0.5t-55 -1.5t-46.5 -2t-59 -1q-37 0 -75 12t-68.5 38t-50 65.5t-19.5 95.5q0 103 61 158.5t179 55.5q30 0 58.5 -1t53 4t46 20t38.5 47z" />
    <glyph glyph-name="fivethai" unicode="&#xe55;" horiz-adv-x="590" 
d="M571 416q-16 -34 -46.5 -52t-67 -26.5t-75.5 -10t-72 -1.5q-66 0 -97 -32t-31 -93q0 -42 22.5 -72.5t62.5 -38.5q-19 17 -27.5 37.5t-8.5 40.5q0 27 10.5 49t27.5 37t38 23t42 8q38 0 61 -15.5t39 -52.5l-62 -57q-1 4 -5 9q-5 13 -11 17t-14 4q-3 0 -8 -4.5t-5 -19.5
q0 -21 23 -42t71 -24q32 -1 47.5 2t22.5 -1l23 -102q-5 -2 -6.5 -1t-6.5 1q-54 1 -86 0.5t-56 -1.5t-47 -2t-59 -1q-37 0 -75 12t-68.5 37.5t-50 64.5t-19.5 93q0 43 11 76t29 57t42 40t51 25q-1 5 -1.5 8t-0.5 7q0 20 9 36t24 27.5t34 17.5t39 6q38 0 68 -21t35 -59
q29 4 53.5 19.5t43.5 51.5zM326 407q0 12 -8 19.5t-26 7.5q-16 0 -24 -7.5t-8 -19.5q0 -8 7 -14.5t26 -6.5q18 0 25.5 6.5t7.5 14.5z" />
    <glyph glyph-name="sixthai" unicode="&#xe56;" horiz-adv-x="590" 
d="M559 209q0 -42 -15.5 -81.5t-46 -70t-74.5 -48.5t-101 -18q-54 0 -93.5 13t-65.5 34t-38.5 48.5t-12.5 56.5q0 24 9.5 45.5t26.5 37t41 24.5t53 9q40 0 64.5 -18t37.5 -51l-60 -54q-1 1 -1 2.5t-1 2.5t-1 2q-7 19 -27 19q-21 0 -21 -21q0 -9 4.5 -19.5t15 -19t27.5 -14.5
t42 -6q24 0 45 9t37 26t25.5 41.5t9.5 54.5q0 22 -7.5 43.5t-22.5 38t-37 27t-50 10.5t-46 -5.5t-29.5 -13.5t-17.5 -16.5t-10 -15.5h-105q-3 9 -9 26t-17 35.5t-27.5 34.5t-40.5 23l61 111q16 -7 31.5 -22.5t28 -35t21.5 -40t13 -36.5q29 22 66 35t82 13q48 0 90.5 -14.5
t75 -42.5t51.5 -68t19 -91z" />
    <glyph glyph-name="seventhai" unicode="&#xe57;" horiz-adv-x="590" 
d="M606 483q-35 -42 -54 -113t-19 -159q0 -81 -29.5 -137.5t-81.5 -87.5l-84 50q2 2 3 4.5t4 4.5q37 26 52 63.5t15 99.5q0 38 -3.5 61t-10 35t-14.5 16t-17 4t-16 -13t-12.5 -30.5t-8 -34t-2.5 -22.5h-92q0 8 -1.5 25t-6 33.5t-12.5 29t-21 12.5q-3 0 -8.5 -3.5t-11 -14.5
t-9.5 -31t-4 -53q0 -9 1.5 -31t7 -45t14.5 -40.5t24 -17.5q12 0 16.5 11.5t9.5 18.5l62 -56q-9 -32 -33 -51.5t-64 -19.5q-34 0 -63.5 17t-51 48t-34 72.5t-12.5 91.5q0 54 12.5 93t33 63.5t47.5 36t56 11.5q30 0 55.5 -18t39.5 -47q13 30 39 47.5t57 17.5q20 0 40.5 -4.5
t39.5 -17.5q0 5 3.5 18.5t9.5 29.5t14 30.5t17 22.5z" />
    <glyph glyph-name="eightthai" unicode="&#xe58;" horiz-adv-x="590" 
d="M574 413q-10 -24 -32.5 -41.5t-53.5 -28.5t-68.5 -16t-78.5 -5h-84q-34 0 -58 -28t-24 -88q0 -9 1.5 -28t7 -38.5t14.5 -34t24 -14.5t24 10.5t13.5 24.5t6.5 28t4 21h93q2 -6 3.5 -19.5t5.5 -28t13 -25.5t26 -11q13 0 24 8t11 21q0 10 -3.5 15.5t-9 7.5t-11.5 2h-12v85
q15 6 39.5 5.5t48 -11.5t40.5 -35.5t17 -66.5q0 -58 -34 -95.5t-97 -37.5q-38 0 -65 17.5t-41 43.5q-30 -59 -102 -59q-26 0 -55 11t-54.5 36.5t-42 66t-16.5 99.5q0 64 19 106t49 66.5t66.5 34t71.5 9.5q5 0 21 -0.5t34 -0.5h47q39 -1 63.5 9t39.5 24t22.5 28.5t11.5 22.5z
" />
    <glyph glyph-name="ninethai" unicode="&#xe59;" horiz-adv-x="590" 
d="M593 431q-29 -40 -51 -52.5t-40.5 -13t-34.5 3.5t-32 -2q-14 -5 -20 -18.5t-4 -16.5l155 -293l-95 -53l-160 295q-11 21 -25.5 33.5t-45.5 12.5q-18 0 -34 -9.5t-28.5 -26.5t-20 -39.5t-7.5 -47.5q0 -24 8 -44t20.5 -35t29.5 -23.5t35 -8.5q20 0 41 3t35 22l73 -64
q-29 -35 -68 -49t-81 -14q-47 0 -86 16.5t-67 45t-43.5 68t-15.5 84.5t15 84.5t42 69t65.5 47t86.5 17.5q20 0 42.5 -5t44.5 -18q11 27 26.5 39.5t33 17t36.5 5t36 4t32 13t25 32.5q1 -1 13 -13.5t26 -27.5q8 -9 17.5 -18.5z" />
    <glyph glyph-name="angkhankhuthai" unicode="&#xe5a;" horiz-adv-x="636" 
d="M477 0v415h132v-415h-132zM287 0v195q-44 -25 -95 -25q-58 0 -95.5 19t-56.5 47t-19.5 61t16.5 61t50.5 47t83.5 19q32 0 52.5 -6.5t42.5 -21.5l-29 -79q-26 11 -45 9t-30 -10.5t-14 -22t3.5 -25t23 -18.5t43.5 -4q30 4 49.5 18t19.5 33v118h132v-415h-132z" />
    <glyph glyph-name="khomutthai" unicode="&#xe5b;" horiz-adv-x="968" 
d="M936 146h-197q-11 -19 -31 -50.5t-43 -54.5q-8 29 -24 61.5t-30 54.5q-8 -15 -19 -33.5t-24 -37.5t-25.5 -35.5t-23.5 -26.5q-14 27 -32.5 59.5t-34.5 58.5q-8 -30 -22.5 -56.5t-38.5 -46.5t-58 -32t-80 -12q-53 0 -96 14t-73.5 39.5t-47 62t-16.5 80.5q0 41 15.5 76.5
t43.5 62t66.5 41.5t84.5 15q37 0 69 -17t52 -55l-67 -64q-5 21 -10.5 33t-12 18t-14.5 7.5t-17 1.5q-21 0 -40 -8.5t-34 -24.5t-24 -37.5t-9 -48.5q0 -60 36 -90.5t93 -30.5q34 0 59 19.5t38.5 50.5t13.5 68t-16 72l73 48q13 -10 28 -26t29.5 -34t28 -37t24.5 -34
q8 17 15 35.5t9 26.5l61 39q13 -13 30.5 -36t31.5 -43q5 8 6 22h271z" />
    <glyph glyph-name="saraulowthai" unicode="&#xf718;" 
d="M-23 -321v57q0 12 -0.5 24t-17.5 12h-29l18 56h67h17t18 -3.5t14 -12t6 -24.5v-109h-93z" />
    <glyph glyph-name="sarauulowthai" unicode="&#xf719;" 
d="M135 -244q0 -45 -34 -64t-88 -19q-55 0 -80 19t-25 37q0 7 0.5 15t-0.5 15t-5 11.5t-14 4.5h-24l24 55h34q7 0 16.5 -1t18 -4.5t14 -11.5t5.5 -22q0 -7 -0.5 -16t1.5 -17.5t8 -14.5t19 -6q20 0 26 9.5t6 22.5v59h98v-72z" />
    <glyph glyph-name="phinthulowthai" unicode="&#xf71a;" 
d="M51 -215q0 -21 -15 -36t-36 -15q-20 0 -35.5 15t-15.5 36t15.5 36t35.5 15q21 0 36 -15t15 -36z" />
    <glyph glyph-name="rulakkhangyao" unicode="&#xf881;" horiz-adv-x="672" 
d="M518 -150v450q0 20 -12.5 27.5t-30.5 7.5q-11 0 -28 -8t-27 -16q3 -14 3 -29v-432h-131v430q0 24 -13.5 41t-48.5 17q-33 0 -51 -17.5t-18 -41.5v-206h48v-73h-179v214q0 30 9 51.5t23 35.5q-18 3 -33 2v54q18 10 38 22t45 22t56 16.5t71 6.5q48 0 86.5 -11.5t63.5 -37.5
q26 20 60 34.5t82 14.5q36 0 59 -10t36.5 -26t18.5 -34.5t5 -34.5v-469h-132z" />
    <glyph glyph-name="lulakkhangyao" unicode="&#xf882;" horiz-adv-x="673" 
d="M523 -150v450q0 20 -12.5 27.5t-30.5 7.5q-11 0 -28.5 -8.5t-26.5 -16.5q1 -7 1.5 -13.5t0.5 -14.5v-432h-131v430q0 24 -13.5 41t-48.5 17q-32 0 -50 -17.5t-18 -41.5v-279h-152v73h21v141q0 30 8.5 51.5t22.5 35.5q-18 3 -32 2v54q18 10 38 22t45 22t56 16.5t71 6.5
q48 0 86.5 -11.5t63.5 -37.5q26 20 60 34.5t82 14.5q36 0 59 -10t36.5 -26t18.5 -34.5t5 -34.5v-469h-132z" />
    <glyph glyph-name="lochula.short" unicode="&#xf71d;" horiz-adv-x="510" 
d="M490 131q0 -72 -32 -107t-89 -35q-35 0 -62.5 15t-44.5 38q-12 -23 -41 -38t-61 -15q-57 0 -93.5 36.5t-36.5 105.5v284h131v-312q0 -9 6.5 -15t15.5 -6t14.5 6t5.5 15v206h112v-206q0 -9 6.5 -15t15.5 -6t15 6t6 15v203q0 24 -11 32t-28 9v40q14 2 26 12.5t12 32.5v33
h132v-37q0 -23 -9.5 -38.5t-23.5 -20.5q16 -5 25 -20.5t9 -32.5v-185z" />
    <glyph glyph-name="uni25CC" unicode="&#x25cc;" horiz-adv-x="670" 
d="M259 179l-48 -15l17 47q13 -18 31 -32zM312 413l23 45l22 -44q-5 1 -10.5 1h-10.5q-6 0 -12 -0.5t-12 -1.5zM355 156l-20 -42l-21 42q5 -1 11 -1.5t11 -0.5t9.5 0.5t9.5 1.5zM465 307l42 -22l-42 -19q1 5 1.5 9.5t0.5 9.5t-0.5 11t-1.5 11zM208 264l-45 23l45 22
q-1 -6 -1.5 -12t-0.5 -12q0 -5 0.5 -10.5t1.5 -10.5zM231 363l-13 46l45 -16q-18 -11 -32 -30zM440 205l12 -41l-41 13q18 13 29 28zM410 393l49 16l-17 -47q-14 18 -32 31z" />
    <glyph glyph-name="yamakkanleftthai" 
d="M12 639q-33 0 -42.5 -16t-9.5 -59q-35 0 -49 -15.5t-14 -54.5h-81q0 62 23 93.5t53 43.5q4 15 12 30.5t22 28.5t35 21.5t51 8.5v-81z" />
    <glyph glyph-name="copyright" unicode="&#xa9;" horiz-adv-x="658" 
d="M643 289q0 -64 -24.5 -120t-67.5 -98t-100 -66t-122 -24t-121.5 24t-99.5 66t-67.5 98t-24.5 120q0 63 24.5 119t67.5 98t99.5 66t121.5 24t122 -24t100 -66t67.5 -98t24.5 -119zM564 289q0 48 -18.5 90t-50.5 73.5t-74.5 49.5t-91.5 18t-91.5 -18t-74 -49.5t-50 -73.5
t-18.5 -90t18.5 -89.5t50 -73t74 -49.5t91.5 -18t91.5 18t74.5 49.5t50.5 73t18.5 89.5zM482 253q-11 -64 -51.5 -101t-101.5 -37q-39 0 -68 15t-47.5 40t-27.5 55.5t-9 62.5t9.5 63.5t29 56.5t49 40.5t68.5 15.5q63 0 99.5 -34.5t47.5 -98.5l-74 -10q-5 38 -24 59t-52 21
q-25 0 -41 -17t-23.5 -42t-7 -54.5t8.5 -54.5t24 -42t39 -17q34 0 51.5 23.5t25.5 62.5z" />
    <glyph glyph-name="registered" unicode="&#xae;" horiz-adv-x="497" 
d="M443 322q0 -40 -15.5 -75.5t-41.5 -61.5t-61.5 -41.5t-75.5 -15.5q-41 0 -76.5 15.5t-61.5 41.5t-41.5 61.5t-15.5 75.5t15.5 76t41.5 62t61.5 41.5t76.5 15.5q40 0 75.5 -15.5t61.5 -41.5t41.5 -62t15.5 -76zM404 322q0 32 -12 60.5t-33 49.5t-49.5 33t-60.5 12
t-60.5 -12t-49.5 -33t-33 -49.5t-12 -60.5t12 -60.5t33 -49.5t49.5 -33t60.5 -12t60.5 12t49.5 33t33 49.5t12 60.5zM282 214l-32 79h-25v-79h-58v221h97q35 0 55.5 -19t20.5 -54q0 -26 -10 -40.5t-26 -19.5l41 -88h-63zM282 362q0 20 -19 20h-38v-38h38q7 0 13 4.5t6 13.5z
" />
    <glyph glyph-name="trademark" unicode="&#x2122;" horiz-adv-x="733" 
d="M614 220v179l1 44l-6 -24l-72 -199h-51l-79 214l-6 24l1 -56v-182h-75v357h99l86 -231l79 231h98v-357h-75zM199 512v-292h-75v292h-99v65h273v-65h-99z" />
    <glyph glyph-name="multiply" unicode="&#xd7;" horiz-adv-x="527" 
d="M351 230l128 -128l-85 -85l-128 127l-134 -134l-81 79l135 135l-132 132l86 85l132 -132l135 135l79 -80z" />
    <glyph glyph-name="divide" unicode="&#xf7;" horiz-adv-x="604" 
d="M375 380q0 -29 -20 -49t-49 -20t-49 20t-20 49t20 49t49 20t49 -20t20 -49zM86 170v120h442v-120h-442zM375 80q0 -29 -20 -49t-49 -20t-49 20t-20 49t20 49t49 20t49 -20t20 -49z" />
    <glyph glyph-name="ZWSP" unicode="&#x200b;" 
 />
    <glyph glyph-name="yoyingthai" unicode="&#xe0d;" horiz-adv-x="650" 
d="M628 32q0 -39 -14 -72t-41 -56.5t-66 -36.5t-89 -13q-17 0 -37.5 3.5t-41 10t-39.5 16.5t-33 23l38 70q23 -27 50.5 -36.5t58.5 -9.5q15 0 31 4t30 12.5t23 22.5t9 34v53q-23 -36 -52 -51t-60 -15q-35 0 -59.5 12.5t-39.5 33.5t-22 47.5t-7 55.5v148q0 23 -10.5 37.5
t-42.5 14.5q-27 0 -39.5 -15t-12.5 -39v-213h47v-73h-178v214q0 30 9 52.5t23 34.5q-17 4 -33 3v56q34 23 81 43.5t104 20.5q39 0 72.5 -6t58 -21t38.5 -41t14 -66v-136q0 -30 9.5 -47t37.5 -17q22 0 36.5 21.5t14.5 48.5v255h132v-383z" />
    <glyph glyph-name="sterling" unicode="&#xa3;" horiz-adv-x="494" 
d="M347 377v29q0 40 -24 64.5t-63 24.5q-27 0 -45 -8.5t-28.5 -20.5t-14.5 -24.5t-4 -20.5q0 -16 7.5 -35.5t24.5 -50.5h142v-89h-106q3 -14 3 -31q0 -25 -10 -54.5t-32 -56.5h246v-104h-414v104h47q17 15 27.5 31t16 30.5t7.5 26.5t2 18q0 8 -3 17.5t-6 18.5h-92v89h42
q-8 20 -14.5 40t-6.5 43q0 28 10.5 59t36 57t67.5 43.5t105 17.5q51 0 87.5 -16t60 -42.5t34.5 -59.5t11 -66v-34h-114z" />
    <glyph glyph-name="yen" unicode="&#xa5;" horiz-adv-x="572" 
d="M445 385h94v-100h-157l-22 -37h179v-101h-191v-148h-122v148h-195v101h182l-24 37h-158v100h94l-121 194h140l149 -235l149 235h125z" />
    <glyph glyph-name="cent" unicode="&#xa2;" horiz-adv-x="423" 
d="M377 246q-11 -60 -44.5 -98t-85.5 -49v-69h-68v69q-34 7 -58.5 25.5t-40.5 44t-23.5 56t-7.5 62.5t8 62.5t24 56.5t40.5 44.5t57.5 26.5v70h68v-68q55 -8 86.5 -44.5t41.5 -97.5l-77 -11q-8 64 -51 84v-246q21 11 33 33.5t19 55.5zM179 406q-24 -15 -35.5 -48.5
t-11 -70.5t12 -70.5t34.5 -49.5v239z" />
    <glyph glyph-name="Euro" unicode="&#x20ac;" horiz-adv-x="635" 
d="M606 206q-16 -106 -80.5 -163.5t-170.5 -57.5q-49 0 -88.5 14.5t-69.5 39.5t-51 58t-33 70h-96v101h78q-1 6 -1.5 12.5t-0.5 8.5t0.5 8.5t1.5 12.5h-78v101h95q13 39 34.5 72t52.5 57t72 38t92 14q52 0 94.5 -16t74.5 -45q29 -26 47.5 -63t26.5 -94l-119 -21
q-11 67 -43.5 104.5t-83.5 37.5q-45 0 -72.5 -23t-43.5 -61h171v-101h-192q0 -6 -0.5 -13t-0.5 -9v-8t1 -12h192v-101h-171q17 -39 44 -62.5t69 -23.5q52 0 86.5 38t44.5 110z" />
    <glyph glyph-name="onequarter" unicode="&#xbc;" horiz-adv-x="632" 
d="M570 71v-71h-71v71h-156v45l154 218h73v-203h53v-60h-53zM216 0h-83l303 580h83zM30 246v60h63v171q-12 -7 -28.5 -13.5t-45.5 -15.5v66q32 13 52 26.5t42 39.5h52v-274h62v-60h-197zM499 232l-68 -101h68v101z" />
    <glyph glyph-name="onehalf" unicode="&#xbd;" horiz-adv-x="632" 
d="M621 225q0 -42 -20 -69.5t-49 -50.5q-15 -11 -28 -22.5t-28 -22.5h122v-60h-239v46l122 98q20 16 32.5 35t12.5 46q0 25 -13.5 41.5t-35.5 16.5q-46 0 -59 -78l-71 18q15 57 47 86.5t83 29.5q27 0 50 -9t39.5 -25t25.5 -36.5t9 -43.5zM203 0h-83l303 579h83zM30 246v60
h63v171q-12 -7 -28.5 -13.5t-45.5 -15.5v66q32 13 52 26.5t42 39.5h52v-274h62v-60h-197z" />
    <glyph glyph-name="threequarters" unicode="&#xbe;" horiz-adv-x="632" 
d="M569 71v-71h-71v71h-156v46l154 217h73v-203h53v-60h-53zM230 0h-83l303 579h83zM267 342q0 -19 -7.5 -36.5t-23.5 -31.5t-41 -22.5t-59 -8.5q-43 0 -80 22.5t-52 76.5l69 21q7 -35 24.5 -50t40.5 -15q29 0 42.5 13.5t13.5 31.5q0 22 -16.5 34.5t-38.5 12.5h-58v60h60
q22 0 32 11t10 30q0 17 -11.5 27.5t-31.5 10.5q-18 0 -33.5 -12.5t-23.5 -44.5l-70 18q16 53 51 74.5t76 21.5q23 0 44 -6.5t36.5 -19t25 -30.5t9.5 -40q0 -21 -8.5 -39.5t-23.5 -29.5q19 -12 31.5 -32.5t12.5 -46.5zM498 232l-68 -101h68v101z" />
    <glyph glyph-name="saraamleft" horiz-adv-x="295" 
d="M-186 546q0 -43 -32 -64t-74 -21q-43 0 -75 21.5t-32 63.5q0 22 9.5 37.5t24.5 25.5t34 15t39 5q19 0 38 -5t34 -15t24.5 -25.5t9.5 -37.5zM145 0v302q0 20 -12.5 27.5t-30.5 7.5q-11 0 -29 -8.5t-27 -16.5l-34 63q26 20 61.5 35.5t83.5 15.5q36 0 59.5 -10t37 -26
t18.5 -34.5t5 -34.5v-321h-132zM-258 546q0 11 -10 20t-24 9t-24.5 -9t-10.5 -20q0 -12 10.5 -21t24.5 -9t24 9t10 21z" />
    <glyph glyph-name="uni0E33.alt1" horiz-adv-x="295" 
d="M-186 546q0 -43 -32 -64t-74 -21q-43 0 -75 21.5t-32 63.5q0 22 9.5 37.5t24.5 25.5t34 15t39 5q19 0 38 -5t34 -15t24.5 -25.5t9.5 -37.5zM145 0v302q0 20 -12.5 27.5t-30.5 7.5q-11 0 -29 -8.5t-27 -16.5l-34 63q26 20 61.5 35.5t83.5 15.5q36 0 59.5 -10t37 -26
t18.5 -34.5t5 -34.5v-321h-132zM-258 546q0 11 -10 20t-24 9t-24.5 -9t-10.5 -20q0 -12 10.5 -21t24.5 -9t24 9t10 21z" />
    <glyph glyph-name="guillemotleft" unicode="&#xab;" horiz-adv-x="466" 
d="M243 230v89l194 132v-92l-103 -85l103 -91v-96zM29 230v89l194 132v-92l-103 -85l102 -91v-96z" />
    <glyph glyph-name="guillemotright" unicode="&#xbb;" horiz-adv-x="466" 
d="M243 87v96l103 91l-103 85v92l194 -132v-89zM29 87v96l103 91l-103 85v92l193 -132v-89z" />
    <glyph glyph-name="quotedblright" unicode="&#x201d;" horiz-adv-x="410" 
d="M279 358h-74l58 126h-36v124h128v-110zM111 358h-74l58 126h-36v124h128v-110z" />
    </font>
</defs>
</svg>
